<svg version="1.1" xmlns="http://www.w3.org/2000/svg" viewBox="0 0 933.14453125 670.287841796875" width="1866.2890625" height="1340.57568359375">
  <!-- svg-source:excalidraw -->
  
  <defs>
    <style class="style-fonts">
      @font-face {
        font-family: "Virgil";
        src: url("https://excalidraw.com/Virgil.woff2");
      }
      @font-face {
        font-family: "Cascadia";
        src: url("https://excalidraw.com/Cascadia.woff2");
      }
    </style>
  </defs>
  <rect x="0" y="0" width="933.14453125" height="670.287841796875" fill="#ffffff"></rect><g stroke-linecap="round" transform="translate(10 81.76025390625) rotate(0 144.701171875 153.0078125)"><path d="M7.86 8.16 C7.86 8.16, 7.86 8.16, 7.86 8.16 M7.86 8.16 C7.86 8.16, 7.86 8.16, 7.86 8.16 M3.66 19.09 C8.41 13.22, 13.14 7.19, 18.1 2.48 M3.66 19.09 C7.97 13.34, 13.34 8.48, 18.1 2.48 M2.75 26.24 C12.92 14.86, 18.69 8.67, 24.4 1.33 M2.75 26.24 C7.49 21.45, 11.86 14.5, 24.4 1.33 M2.48 32.64 C8.97 25.46, 14 19.23, 30.7 0.18 M2.48 32.64 C9.52 24.18, 17.04 17.55, 30.7 0.18 M2.88 38.28 C11.45 27.13, 20.23 18.42, 34.37 2.05 M2.88 38.28 C10.61 28.49, 19.61 20.52, 34.37 2.05 M2.62 44.68 C14.3 34.31, 24.35 20.58, 39.36 2.41 M2.62 44.68 C11.78 34.24, 20.23 23.71, 39.36 2.41 M2.36 51.07 C18.49 30.64, 33.16 14, 45 2.02 M2.36 51.07 C15.39 36.59, 29.57 19.94, 45 2.02 M2.75 56.72 C13.78 44.97, 27.29 29.28, 49.99 2.38 M2.75 56.72 C14.71 42.92, 24.3 29.91, 49.99 2.38 M2.49 63.11 C17.9 47.67, 33.5 30.06, 55.63 1.98 M2.49 63.11 C14.8 48.12, 27.41 34.8, 55.63 1.98 M2.23 69.51 C15.34 55.22, 26.53 40.79, 60.62 2.34 M2.23 69.51 C14.89 53.89, 28.36 38.52, 60.62 2.34 M2.62 75.16 C24.28 50.31, 49.22 20.04, 66.26 1.95 M2.62 75.16 C26.59 47.12, 51.13 21.16, 66.26 1.95 M2.36 81.55 C25.98 54.57, 47.52 30.5, 71.25 2.31 M2.36 81.55 C27.73 50.03, 53.89 19.91, 71.25 2.31 M2.76 87.2 C23.67 62.26, 45.92 36.99, 76.89 1.91 M2.76 87.2 C25.44 60.91, 46.99 33.55, 76.89 1.91 M2.49 93.59 C25.13 68.47, 46.74 43.44, 81.88 2.27 M2.49 93.59 C27.94 64.48, 52.72 36.99, 81.88 2.27 M2.23 99.99 C34.75 63.38, 65.93 27.23, 87.52 1.88 M2.23 99.99 C30.92 67.28, 61.56 33.11, 87.52 1.88 M2.63 105.64 C23.33 78.53, 47.59 52.58, 92.51 2.24 M2.63 105.64 C38.34 64.45, 73.9 23.69, 92.51 2.24 M2.37 112.03 C41.64 66.89, 77.84 23.99, 98.15 1.85 M2.37 112.03 C37.63 70.69, 73.77 32.03, 98.15 1.85 M2.76 117.68 C38.16 75.38, 74.49 37.55, 103.14 2.21 M2.76 117.68 C32.08 82.22, 61.71 48.82, 103.14 2.21 M2.5 124.07 C24.61 95.88, 47.45 68.96, 108.78 1.81 M2.5 124.07 C25 98.94, 47.4 71.78, 108.78 1.81 M2.24 130.47 C43.36 84.1, 86.94 34.3, 113.77 2.17 M2.24 130.47 C26.07 103.03, 50.62 74.49, 113.77 2.17 M2.63 136.11 C41.79 94.98, 79.09 50.85, 119.41 1.78 M2.63 136.11 C38.33 95.48, 74.51 53.44, 119.41 1.78 M2.37 142.51 C36.34 105.04, 64.87 67.84, 124.4 2.14 M2.37 142.51 C32.41 108.34, 60.91 73.59, 124.4 2.14 M2.11 148.91 C39.57 106.57, 79.5 59.93, 130.04 1.74 M2.11 148.91 C25.97 120.57, 52.27 90.99, 130.04 1.74 M2.5 154.55 C32.9 121.31, 62.71 85.08, 135.03 2.1 M2.5 154.55 C32.1 121.53, 60.81 88.04, 135.03 2.1 M2.24 160.95 C50.89 108.33, 99.27 50.74, 140.67 1.71 M2.24 160.95 C38.11 118.66, 73.07 79.22, 140.67 1.71 M2.64 166.59 C33.93 129.26, 69.06 91.64, 145.66 2.07 M2.64 166.59 C37.35 126.99, 72.95 86.72, 145.66 2.07 M2.38 172.99 C57.9 108.43, 115.17 43.33, 150.65 2.43 M2.38 172.99 C53.34 116.04, 103.41 56.29, 150.65 2.43 M2.11 179.39 C50.65 123.24, 99.21 68.25, 156.29 2.03 M2.11 179.39 C64.4 109.57, 124.41 39.41, 156.29 2.03 M2.51 185.03 C51.93 128.43, 103 71.19, 161.28 2.39 M2.51 185.03 C58.7 119.24, 115.88 53.44, 161.28 2.39 M2.25 191.43 C46.05 140.71, 90.65 91.28, 166.92 2 M2.25 191.43 C35.34 152.38, 67.71 114.25, 166.92 2 M1.99 197.83 C68.05 122.47, 134.22 44.9, 171.91 2.36 M1.99 197.83 C53.15 139.06, 104.7 80.44, 171.91 2.36 M2.38 203.47 C61.01 136.37, 120.06 68.38, 177.55 1.96 M2.38 203.47 C67.78 131.06, 130.95 57.13, 177.55 1.96 M2.12 209.87 C49 158.18, 93.64 106.97, 182.54 2.32 M2.12 209.87 C74.17 125.48, 146.36 43.76, 182.54 2.32 M2.51 215.51 C62.64 145.24, 125.18 73.33, 188.18 1.93 M2.51 215.51 C47.71 163.83, 92.3 111.15, 188.18 1.93 M2.25 221.91 C53.3 166.34, 102.22 111.37, 193.17 2.29 M2.25 221.91 C74.12 139.91, 144.89 59.46, 193.17 2.29 M1.99 228.31 C69.64 152.19, 134.95 74.06, 198.81 1.9 M1.99 228.31 C74.81 146.14, 147.32 62.41, 198.81 1.9 M2.39 233.95 C75.56 147.86, 149.6 62.74, 203.8 2.26 M2.39 233.95 C74.97 149.2, 149.35 64.35, 203.8 2.26 M2.12 240.35 C79.97 149.22, 157.26 58.8, 209.44 1.86 M2.12 240.35 C69.62 161.41, 137.75 82.63, 209.44 1.86 M2.52 245.99 C59.39 182.16, 117.05 116.87, 214.43 2.22 M2.52 245.99 C56.7 184.8, 109.73 123.56, 214.43 2.22 M2.26 252.39 C77.6 164.02, 156.73 73.07, 220.07 1.83 M2.26 252.39 C63.69 180.84, 124.32 111.77, 220.07 1.83 M2 258.79 C57.14 197.85, 110.68 135.53, 225.06 2.19 M2 258.79 C68.98 180.81, 134 105.1, 225.06 2.19 M2.39 264.43 C76.87 178.51, 151.67 94.36, 230.7 1.79 M2.39 264.43 C54.59 201.37, 109.32 139.41, 230.7 1.79 M2.13 270.83 C69.48 194.7, 136.88 116.44, 235.69 2.15 M2.13 270.83 C69.22 191.77, 137.08 114.65, 235.69 2.15 M2.52 276.47 C52.59 222.02, 103.03 164.84, 241.33 1.76 M2.52 276.47 C95.06 171.21, 187.87 64.34, 241.33 1.76 M3.57 281.36 C56.81 220.99, 109.74 159.25, 246.32 2.12 M3.57 281.36 C60.51 216.98, 116.85 152.41, 246.32 2.12 M2.66 288.51 C69.92 211.18, 137.42 131.12, 251.96 1.72 M2.66 288.51 C95.26 178.79, 189.54 71.14, 251.96 1.72 M5.02 291.89 C94.9 189.2, 185.75 84.94, 258.26 0.57 M5.02 291.89 C67.79 219.77, 128.59 149.2, 258.26 0.57 M6.73 296.02 C73.68 216.71, 143.56 139.95, 262.59 1.69 M6.73 296.02 C63.16 233.41, 118.37 169.31, 262.59 1.69 M9.09 299.4 C66.93 230.8, 128.7 163.1, 267.58 2.05 M9.09 299.4 C74.96 224.58, 141.08 150.17, 267.58 2.05 M12.76 301.27 C89.16 216.51, 163.39 130.93, 272.56 2.41 M12.76 301.27 C109.42 186.21, 207.9 72.94, 272.56 2.41 M16.44 303.14 C92.37 217.28, 166.95 128.93, 275.58 5.03 M16.44 303.14 C94.65 212.57, 172.34 123.07, 275.58 5.03 M19.46 305.77 C94.09 215.26, 171.86 128.13, 279.26 6.9 M19.46 305.77 C100.17 213.12, 179.74 121.34, 279.26 6.9 M24.44 306.13 C124.24 190.66, 224.35 76.25, 282.93 8.77 M24.44 306.13 C88.88 229.19, 155.4 153.01, 282.93 8.77 M29.43 306.49 C84.93 241.82, 140.65 177.68, 284.64 12.91 M29.43 306.49 C105.92 217.85, 182.72 129.95, 284.64 12.91 M33.76 307.6 C105.37 224.51, 177.23 143.89, 287 16.28 M33.76 307.6 C102.79 225.48, 174.77 143.42, 287 16.28 M39.41 307.21 C97.66 241.82, 155.73 173.51, 289.36 19.66 M39.41 307.21 C94.86 243.05, 151.6 178.07, 289.36 19.66 M44.39 307.57 C129.21 207.79, 217.56 106.29, 290.41 24.55 M44.39 307.57 C135.87 204.35, 225.43 100.55, 290.41 24.55 M49.38 307.93 C119.38 228.31, 189.54 149.31, 290.81 30.19 M49.38 307.93 C104.49 245.49, 157.18 183.7, 290.81 30.19 M55.02 307.53 C123.27 229.54, 193.09 149.79, 292.52 34.33 M55.02 307.53 C104.88 250.23, 156.05 190.9, 292.52 34.33 M60.01 307.89 C148.62 202.65, 236.89 101.4, 292.25 40.73 M60.01 307.89 C146.29 207.28, 233.23 107.84, 292.25 40.73 M65.65 307.5 C155.24 205.85, 245.63 101.84, 292.65 46.37 M65.65 307.5 C141.66 220.31, 218.47 131.32, 292.65 46.37 M70.64 307.86 C137.86 235.12, 201.67 160.06, 292.39 52.77 M70.64 307.86 C126.32 243.19, 181.81 180.52, 292.39 52.77 M76.28 307.46 C134.9 241.91, 190.05 176.98, 292.13 59.16 M76.28 307.46 C155.55 214.94, 234.96 124.67, 292.13 59.16 M81.27 307.82 C130.5 251.21, 181.12 192.68, 292.52 64.81 M81.27 307.82 C158.97 219.4, 236.05 130.45, 292.52 64.81 M86.91 307.43 C155.38 228.79, 220.47 152.43, 292.26 71.21 M86.91 307.43 C157.03 228.41, 227.6 147.08, 292.26 71.21 M91.9 307.79 C133.19 263.98, 174.15 216.45, 292.65 76.85 M91.9 307.79 C155.54 235.9, 217.45 163.03, 292.65 76.85 M97.54 307.4 C158.62 237.87, 218.57 167.06, 292.39 83.25 M97.54 307.4 C141.96 259.07, 186.26 208.88, 292.39 83.25 M102.53 307.76 C148.55 255.91, 195.2 201.94, 292.13 89.64 M102.53 307.76 C149.35 255.48, 196.04 201.62, 292.13 89.64 M108.17 307.36 C175.87 231.71, 241.67 154.36, 292.53 95.29 M108.17 307.36 C178.14 228.1, 248.6 147.14, 292.53 95.29 M113.16 307.72 C179.17 234.77, 243.52 158.6, 292.26 101.69 M113.16 307.72 C180.1 229.89, 246.74 153.28, 292.26 101.69 M118.8 307.33 C175.61 241.37, 233.04 176.27, 292 108.08 M118.8 307.33 C169.85 246.92, 222.29 187.01, 292 108.08 M123.79 307.69 C165.52 261.07, 203.5 216.21, 292.4 113.73 M123.79 307.69 C170.63 252.75, 216.99 197.84, 292.4 113.73 M129.43 307.29 C172.87 254.05, 216.82 203.93, 292.14 120.12 M129.43 307.29 C176.51 253.64, 221.08 201.47, 292.14 120.12 M134.42 307.65 C181.57 250.99, 230.11 196.94, 292.53 125.77 M134.42 307.65 C167.32 269.79, 199.65 231.8, 292.53 125.77 M140.06 307.26 C195.34 239.46, 252.01 176.29, 292.27 132.16 M140.06 307.26 C190.82 248.74, 241.93 190.96, 292.27 132.16 M145.05 307.62 C182.65 264.14, 218.36 226.62, 292.01 138.56 M145.05 307.62 C197.38 244.64, 251.45 182.53, 292.01 138.56 M150.69 307.22 C182.49 271.92, 211.55 238.48, 292.4 144.21 M150.69 307.22 C193.15 260.06, 233.35 213.48, 292.4 144.21 M155.68 307.58 C197.58 257.58, 242.64 208.86, 292.14 150.6 M155.68 307.58 C187.98 270.2, 218.89 234.71, 292.14 150.6 M160.67 307.94 C197.19 264.41, 238.4 217.19, 292.54 156.25 M160.67 307.94 C197.87 265.61, 235.27 222.5, 292.54 156.25 M166.31 307.55 C194.43 273.97, 226.73 242.05, 292.27 162.64 M166.31 307.55 C193.56 274.33, 223.03 240.96, 292.27 162.64 M171.3 307.91 C208.24 263.39, 245.93 218.81, 292.01 169.04 M171.3 307.91 C206.5 268.38, 241.1 229.65, 292.01 169.04 M176.94 307.51 C209.03 272.39, 240.14 235.34, 292.41 174.68 M176.94 307.51 C208.61 273.33, 237.64 237.73, 292.41 174.68 M181.93 307.87 C217.13 267.06, 248.41 229.93, 292.15 181.08 M181.93 307.87 C220.04 263.64, 259.47 220.4, 292.15 181.08 M187.57 307.48 C223.04 266.86, 263.38 223.61, 292.54 186.73 M187.57 307.48 C227.53 259.87, 270.3 212.84, 292.54 186.73 M192.56 307.84 C220.94 274.76, 247.6 242.37, 292.28 193.12 M192.56 307.84 C227.43 267.68, 263.27 226.32, 292.28 193.12 M198.2 307.44 C219.11 286.56, 236.51 264.95, 292.02 199.52 M198.2 307.44 C232.76 268.18, 266.46 229.02, 292.02 199.52 M203.19 307.8 C238.67 267.37, 270.73 228.6, 292.41 205.16 M203.19 307.8 C233.15 273.81, 260.67 241.94, 292.41 205.16 M208.83 307.41 C238.27 271.76, 270.33 235.36, 292.15 211.56 M208.83 307.41 C229.99 282.75, 250.09 259.52, 292.15 211.56 M213.82 307.77 C242.75 271.58, 272.98 237.89, 292.55 217.21 M213.82 307.77 C232.42 285.03, 252.31 263.59, 292.55 217.21 M219.46 307.38 C245.7 277.36, 270.92 249.42, 292.28 223.6 M219.46 307.38 C236.36 290.01, 251.07 271.16, 292.28 223.6 M224.45 307.74 C244.97 280.81, 267.3 259.08, 292.02 230 M224.45 307.74 C242.35 287.59, 260.34 268.16, 292.02 230 M230.09 307.34 C252.18 281.85, 274.54 255.36, 292.42 235.64 M230.09 307.34 C253.12 279.16, 277.3 252.83, 292.42 235.64 M235.08 307.7 C250.43 290.74, 265.67 269.76, 292.16 242.04 M235.08 307.7 C251.67 289.17, 269.48 269.35, 292.16 242.04 M240.72 307.31 C257.73 289.89, 273.79 267.55, 292.55 247.68 M240.72 307.31 C258.46 286.97, 275.32 268.25, 292.55 247.68 M245.71 307.67 C255.54 294.88, 266.41 283.53, 292.29 254.08 M245.71 307.67 C255.25 296.62, 265.19 283.72, 292.29 254.08 M251.35 307.27 C260.87 295.33, 271.57 284.99, 292.03 260.48 M251.35 307.27 C258.87 296.58, 267.08 288.3, 292.03 260.48 M257.65 306.12 C271.31 290.38, 285.46 273.39, 292.42 266.12 M257.65 306.12 C266.19 294.6, 276.51 283.14, 292.42 266.12 M263.95 304.97 C272.41 295.01, 278.39 289.71, 290.19 274.79 M263.95 304.97 C268.73 297.69, 276.17 291.39, 290.19 274.79 M269.59 304.58 C274.01 299.55, 281.75 291.55, 289.27 281.94 M269.59 304.58 C275.87 297.33, 279.44 291.96, 289.27 281.94 M273.92 305.69 C275.78 300.27, 281.15 296.17, 288.36 289.09 M273.92 305.69 C278.56 299.95, 284.27 293.8, 288.36 289.09" stroke="#ced4da" stroke-width="0.5" fill="none"></path><path d="M32 0 M32 0 C107.13 -0.54, 181.96 -0.9, 257.4 0 M32 0 C121.86 0.63, 212.37 1.72, 257.4 0 M257.4 0 C279.34 -0.52, 289.12 9.24, 289.4 32 M257.4 0 C279.83 0.57, 287.94 10.13, 289.4 32 M289.4 32 C290.09 105.95, 291.06 182.01, 289.4 274.02 M289.4 32 C291.57 109.43, 290.94 186.78, 289.4 274.02 M289.4 274.02 C290.62 296.39, 277.35 305.11, 257.4 306.02 M289.4 274.02 C287.8 293.45, 281.01 307.62, 257.4 306.02 M257.4 306.02 C197.68 307.66, 135.87 306.75, 32 306.02 M257.4 306.02 C179.45 305.97, 102.65 306.15, 32 306.02 M32 306.02 C10.25 305.76, 1.2 294.65, 0 274.02 M32 306.02 C9.44 305.58, -1.18 297.11, 0 274.02 M0 274.02 C0.53 193.27, 1.53 115.96, 0 32 M0 274.02 C-0.12 212.15, -1.29 150.41, 0 32 M0 32 C-0.95 11.34, 11.26 1.94, 32 0 M0 32 C0.58 10.68, 9.98 2.2, 32 0" stroke="#000000" stroke-width="1" fill="none"></path></g><g stroke-linecap="round" transform="translate(33.796875 130.75634765625) rotate(0 84.751953125 35.80078125)"><path d="M2.27 7.27 C2.27 7.27, 2.27 7.27, 2.27 7.27 M2.27 7.27 C2.27 7.27, 2.27 7.27, 2.27 7.27 M1.35 14.43 C2.53 13.53, 5.79 10.49, 9.88 4.62 M1.35 14.43 C4.33 10.69, 8.29 7.4, 9.88 4.62 M1.09 20.83 C6.88 11.01, 14.75 4.7, 18.81 0.45 M1.09 20.83 C4.99 16.42, 8.64 11.02, 18.81 0.45 M1.49 26.47 C10.68 15.27, 16.78 6.95, 23.79 0.81 M1.49 26.47 C7.61 19.1, 13.9 13.54, 23.79 0.81 M1.23 32.87 C7.13 25.17, 16.43 17.02, 29.44 0.41 M1.23 32.87 C11.64 21.11, 22.28 8.9, 29.44 0.41 M0.96 39.26 C8.65 32.86, 13.93 22.05, 34.42 0.77 M0.96 39.26 C13.75 24.43, 27.11 9.86, 34.42 0.77 M1.36 44.91 C15.23 28.67, 31.02 11.67, 40.07 0.38 M1.36 44.91 C11.68 31.7, 23.12 19.66, 40.07 0.38 M1.1 51.3 C8.6 41.52, 21.23 31.56, 45.05 0.74 M1.1 51.3 C16.13 33.77, 33.39 14.66, 45.05 0.74 M0.18 58.46 C13.26 40.59, 29.68 22.64, 50.7 0.34 M0.18 58.46 C19.1 35.64, 38.66 12.38, 50.7 0.34 M2.54 61.84 C21.04 42.31, 35.71 23.33, 55.68 0.7 M2.54 61.84 C14.52 49.53, 24.79 35.48, 55.68 0.7 M4.25 65.97 C25.32 42.22, 45.64 17.72, 61.33 0.31 M4.25 65.97 C18.88 50.41, 31.96 34.96, 61.33 0.31 M6.61 69.35 C28.1 46.86, 47.19 20.72, 66.31 0.67 M6.61 69.35 C20.01 51.99, 33.58 36.42, 66.31 0.67 M10.29 71.22 C33.73 43.21, 55.99 19.25, 71.96 0.28 M10.29 71.22 C26.65 53.94, 40.83 34.8, 71.96 0.28 M15.27 71.58 C39.51 45.61, 62.03 18.75, 76.94 0.64 M15.27 71.58 C29.18 56.15, 41.41 40.08, 76.94 0.64 M19.61 72.69 C38.56 51.06, 56.85 32.52, 81.93 1 M19.61 72.69 C35.19 56.63, 47.95 39.32, 81.93 1 M24.59 73.05 C40.24 52.16, 60.91 29.8, 87.57 0.6 M24.59 73.05 C48.67 46.85, 72.58 18.7, 87.57 0.6 M30.24 72.66 C50.03 50.06, 70.41 29.85, 92.56 0.96 M30.24 72.66 C43.53 57.68, 56.49 42.06, 92.56 0.96 M35.22 73.02 C58.1 47.43, 76.37 25.84, 98.2 0.57 M35.22 73.02 C49.37 56.3, 64.21 41.91, 98.2 0.57 M40.87 72.62 C57.34 51.72, 74.68 33.18, 103.19 0.93 M40.87 72.62 C55.99 56.23, 70.68 39.23, 103.19 0.93 M45.85 72.98 C66.46 49.3, 85.8 28.03, 108.83 0.53 M45.85 72.98 C65 51.18, 84.98 27.43, 108.83 0.53 M51.5 72.59 C73.87 45.33, 97.12 21.65, 113.82 0.89 M51.5 72.59 C75.02 46.33, 97.15 19.03, 113.82 0.89 M56.48 72.95 C79.67 46.09, 105.66 19.04, 119.46 0.5 M56.48 72.95 C73.85 53.47, 90.59 34.26, 119.46 0.5 M62.13 72.56 C78.72 54.85, 92.33 36.73, 124.45 0.86 M62.13 72.56 C78.56 53.67, 95.38 36.09, 124.45 0.86 M67.11 72.92 C81.39 54.44, 100.23 35.03, 130.09 0.46 M67.11 72.92 C91.78 45.48, 115.45 16.77, 130.09 0.46 M72.1 73.28 C92.85 48.61, 111.38 26.45, 135.08 0.82 M72.1 73.28 C85.83 58.01, 100.12 42.8, 135.08 0.82 M77.74 72.88 C91.98 56.13, 109.66 37.28, 140.72 0.43 M77.74 72.88 C91.9 56.22, 104.55 41.23, 140.72 0.43 M82.73 73.24 C101.24 52.95, 117.66 35.58, 145.71 0.79 M82.73 73.24 C101.59 50.59, 121.15 29.88, 145.71 0.79 M88.37 72.85 C112.63 45.54, 138.03 18.37, 151.35 0.39 M88.37 72.85 C112.07 44.59, 135.96 17.82, 151.35 0.39 M93.36 73.21 C114.93 48.5, 135.33 23.11, 156.34 0.75 M93.36 73.21 C111.77 53.79, 129.15 32.53, 156.34 0.75 M99 72.81 C114.65 53.54, 131.39 36.2, 160.67 1.87 M99 72.81 C122.07 47.72, 143.33 21.65, 160.67 1.87 M103.99 73.17 C115.58 56.27, 131.32 41.49, 163.69 4.49 M103.99 73.17 C118.19 57.62, 131.25 41.75, 163.69 4.49 M109.63 72.78 C123.02 52.68, 139.48 36.67, 167.37 6.36 M109.63 72.78 C126.36 53.45, 144.52 33.18, 167.37 6.36 M114.62 73.14 C134.08 49.14, 156.41 25.27, 169.07 10.5 M114.62 73.14 C132.72 53.48, 149.37 32.5, 169.07 10.5 M120.26 72.74 C134.15 55.58, 151.42 34.46, 170.78 14.63 M120.26 72.74 C131.8 61.67, 141.6 49.78, 170.78 14.63 M125.25 73.1 C141.29 57.02, 155.87 35.97, 170.52 21.03 M125.25 73.1 C138.41 57.81, 151.03 42.33, 170.52 21.03 M130.89 72.71 C141.98 60.38, 154.85 44.45, 170.26 27.43 M130.89 72.71 C145.44 56.81, 157.49 41.49, 170.26 27.43 M135.88 73.07 C147.26 58.44, 161.73 45.52, 170 33.82 M135.88 73.07 C147.91 60.72, 158.72 46.99, 170 33.82 M141.52 72.67 C148.55 62.82, 157.01 54.4, 170.39 39.47 M141.52 72.67 C148.94 64.03, 158.51 52.74, 170.39 39.47 M146.51 73.03 C151.69 66.04, 155.09 60.03, 170.13 45.86 M146.51 73.03 C155.32 63.26, 165.83 51.73, 170.13 45.86 M152.15 72.64 C155.1 69.98, 160.83 63.26, 169.87 52.26 M152.15 72.64 C156.55 68.49, 160.22 65.09, 169.87 52.26 M159.11 70.74 C161.82 64.85, 166.18 61.29, 169.61 58.66 M159.11 70.74 C162.8 66.82, 164.82 63.58, 169.61 58.66" stroke="#fab005" stroke-width="0.5" fill="none"></path><path d="M17.9 0 M17.9 0 C62.89 -2.23, 112.06 -1.23, 151.6 0 M17.9 0 C67.91 0.92, 119.99 1.32, 151.6 0 M151.6 0 C162.47 1.53, 170.31 6.02, 169.5 17.9 M151.6 0 C164.51 -0.95, 171.47 4.55, 169.5 17.9 M169.5 17.9 C168.65 27.81, 168.34 41.43, 169.5 53.7 M169.5 17.9 C170.21 30.39, 168.59 44.66, 169.5 53.7 M169.5 53.7 C170.72 66.21, 163.86 72.39, 151.6 71.6 M169.5 53.7 C169.51 65.63, 163.94 73.06, 151.6 71.6 M151.6 71.6 C108.12 72.3, 60.18 74.23, 17.9 71.6 M151.6 71.6 C113.61 72.14, 74.71 72.39, 17.9 71.6 M17.9 71.6 C4.08 70.65, 1.2 63.64, 0 53.7 M17.9 71.6 C4.43 70.65, -1.01 64.19, 0 53.7 M0 53.7 C-1.15 41.65, -1.49 26.2, 0 17.9 M0 53.7 C0.63 43.91, 0.04 31.79, 0 17.9 M0 17.9 C0.4 7.01, 4.08 1.33, 17.9 0 M0 17.9 C-1.06 5.01, 7.72 -0.23, 17.9 0" stroke="#000000" stroke-width="1" fill="none"></path></g><g transform="translate(54.095703125 142.55712890625) rotate(0 64.453125 24)"><text x="64.453125" y="0" font-family="Cascadia, Segoe UI Emoji" font-size="20px" fill="#000000" text-anchor="middle" style="white-space: pre;" direction="ltr" dominant-baseline="text-before-edge">EditText</text><text x="64.453125" y="24" font-family="Cascadia, Segoe UI Emoji" font-size="20px" fill="#000000" text-anchor="middle" style="white-space: pre;" direction="ltr" dominant-baseline="text-before-edge">type:PinYin</text></g><g stroke-linecap="round" transform="translate(34.41015625 237.81884765625) rotate(0 84.5 55)"><path d="M3.59 11.07 C3.59 11.07, 3.59 11.07, 3.59 11.07 M3.59 11.07 C3.59 11.07, 3.59 11.07, 3.59 11.07 M0.7 20.48 C5.72 15.31, 10.25 11.7, 16.44 2.37 M0.7 20.48 C5.1 14.43, 10.36 9.22, 16.44 2.37 M3.06 23.86 C10.73 15.01, 16.05 9.09, 22.09 1.98 M3.06 23.86 C8.92 15.81, 16.19 9.94, 22.09 1.98 M3.46 29.51 C11.9 20.21, 19.53 12.59, 28.39 0.83 M3.46 29.51 C12.35 19.39, 23.09 7.82, 28.39 0.83 M3.2 35.9 C10.88 28.88, 17.42 22.72, 34.03 0.43 M3.2 35.9 C9.01 28.25, 15.26 21.66, 34.03 0.43 M3.59 41.55 C16.64 27.92, 24.98 17.02, 39.02 0.79 M3.59 41.55 C12.08 30.77, 22.27 20.23, 39.02 0.79 M3.33 47.94 C14.98 34.52, 27.12 22.54, 44 1.15 M3.33 47.94 C12.31 35.75, 23.04 25.62, 44 1.15 M3.07 54.34 C18.93 37.81, 35.91 16.31, 49.65 0.76 M3.07 54.34 C18.07 38.15, 31.25 22.04, 49.65 0.76 M3.46 59.98 C21.24 37.41, 38 18.21, 54.63 1.12 M3.46 59.98 C16.23 44.1, 30.11 27.78, 54.63 1.12 M3.2 66.38 C23.27 42.58, 42.32 24.17, 60.28 0.72 M3.2 66.38 C14.81 52.49, 26.92 38.43, 60.28 0.72 M3.59 72.03 C15.18 55.44, 30.25 41.2, 65.26 1.08 M3.59 72.03 C19.34 53.96, 35.49 35.48, 65.26 1.08 M3.33 78.42 C26.44 52.35, 47.49 26.14, 70.91 0.69 M3.33 78.42 C16.92 62.04, 30.91 45.83, 70.91 0.69 M3.07 84.82 C29.83 57.25, 55.86 26.91, 75.89 1.05 M3.07 84.82 C23.08 61.75, 42.64 39.61, 75.89 1.05 M2.81 91.22 C34.33 55.3, 63.73 22.06, 81.54 0.65 M2.81 91.22 C28.02 61.4, 54.2 31.43, 81.54 0.65 M4.52 95.35 C28.77 64.74, 57.17 37.34, 86.52 1.01 M4.52 95.35 C28.56 67.19, 53.98 39.41, 86.52 1.01 M5.57 100.24 C30.15 71.15, 56.25 37.72, 92.17 0.62 M5.57 100.24 C35.45 66.15, 63.49 33.27, 92.17 0.62 M7.93 103.62 C38.02 70.01, 67.44 37.18, 97.15 0.98 M7.93 103.62 C26.89 80.9, 47.71 58.99, 97.15 0.98 M10.95 106.24 C41.09 69.39, 75.14 31.02, 102.8 0.58 M10.95 106.24 C44.61 66.35, 80.39 26.23, 102.8 0.58 M15.28 107.36 C39.15 78.25, 62.64 53.45, 107.78 0.94 M15.28 107.36 C38.87 79.38, 61.82 51.67, 107.78 0.94 M18.96 109.23 C41.35 84.33, 59.83 61.37, 113.43 0.55 M18.96 109.23 C51.1 73.04, 82.42 36.12, 113.43 0.55 M22.63 111.1 C47.31 83.74, 70.96 55.2, 118.41 0.91 M22.63 111.1 C51.65 78.07, 80.66 45.78, 118.41 0.91 M28.27 110.7 C61.72 70.27, 98 29.84, 124.06 0.52 M28.27 110.7 C56.45 78.56, 82.14 47.93, 124.06 0.52 M33.92 110.31 C62.5 78.42, 91.73 41.64, 129.04 0.88 M33.92 110.31 C52.16 88.68, 72.63 66.78, 129.04 0.88 M38.9 110.67 C68.81 77.27, 101.56 38.23, 134.69 0.48 M38.9 110.67 C60.6 85.87, 81.78 61.28, 134.69 0.48 M43.89 111.03 C74.56 77.44, 100.94 41.37, 139.68 0.84 M43.89 111.03 C70.7 80.13, 97.58 50.28, 139.68 0.84 M49.53 110.63 C85.59 71.51, 120.24 28.07, 144.01 1.96 M49.53 110.63 C81.74 72.81, 115.31 36.17, 144.01 1.96 M54.52 110.99 C90.86 67.46, 127.23 28.52, 149.65 1.56 M54.52 110.99 C91.94 68.04, 129.26 25.58, 149.65 1.56 M60.16 110.6 C86.61 80.81, 113.95 51.52, 153.32 3.43 M60.16 110.6 C96.56 69.88, 132.26 29.18, 153.32 3.43 M65.15 110.96 C96.85 78.19, 123.75 41.97, 157.65 4.55 M65.15 110.96 C90.83 80.38, 116.56 51.48, 157.65 4.55 M70.79 110.57 C100.22 77.21, 133.59 39.89, 161.33 6.42 M70.79 110.57 C93.26 84.58, 115.32 57.2, 161.33 6.42 M75.78 110.93 C107.31 71.91, 141.39 34.77, 164.35 9.04 M75.78 110.93 C98.76 86.26, 118.28 62.24, 164.35 9.04 M81.42 110.53 C109.43 75.59, 139.45 40.19, 166.71 12.42 M81.42 110.53 C113.53 72.29, 148.1 34.7, 166.71 12.42 M86.41 110.89 C112.37 83.14, 134.26 51.13, 168.42 16.55 M86.41 110.89 C105.05 90.07, 123.57 70.02, 168.42 16.55 M92.05 110.5 C113.8 87.01, 134.87 62.52, 169.47 21.44 M92.05 110.5 C111.33 89.18, 128.73 65.76, 169.47 21.44 M97.04 110.86 C114.69 90.24, 135.77 66.67, 169.21 27.84 M97.04 110.86 C121.48 81.88, 146.08 52.69, 169.21 27.84 M102.68 110.46 C122.74 91.35, 138.77 68.85, 169.6 33.48 M102.68 110.46 C128.96 82.36, 154.44 52.64, 169.6 33.48 M107.67 110.82 C128.95 88.01, 150.32 63.95, 169.34 39.88 M107.67 110.82 C130.15 84.69, 153.91 56.77, 169.34 39.88 M113.31 110.43 C134.49 87.62, 150.89 63.52, 169.74 45.52 M113.31 110.43 C133.87 86.99, 153.97 64.91, 169.74 45.52 M118.3 110.79 C131.29 96.55, 140.78 85.48, 169.47 51.92 M118.3 110.79 C132.73 94.32, 145.31 78.44, 169.47 51.92 M123.94 110.39 C139.46 90.91, 157.86 73.2, 169.21 58.32 M123.94 110.39 C135.28 95.85, 147.64 81.85, 169.21 58.32 M128.93 110.75 C139.57 98.63, 154.47 83.39, 169.61 63.96 M128.93 110.75 C137.88 99.54, 146.1 90.28, 169.61 63.96 M134.57 110.36 C145.18 99.16, 153.74 90.99, 169.35 70.36 M134.57 110.36 C148.98 95.15, 162.36 77.49, 169.35 70.36 M139.56 110.72 C147.94 102.88, 155.21 93.63, 169.74 76 M139.56 110.72 C149.92 97.53, 161.71 84.75, 169.74 76 M143.89 111.83 C153.94 100.85, 162.51 92.59, 169.48 82.4 M143.89 111.83 C151.84 100.96, 162.4 91.83, 169.48 82.4 M149.54 111.44 C155.05 106.23, 162.03 97.24, 168.56 89.55 M149.54 111.44 C155.94 102.65, 164.33 94.18, 168.56 89.55" stroke="#fab005" stroke-width="0.5" fill="none"></path><path d="M27.5 0 M27.5 0 C56.31 1.09, 85.75 -1.79, 141.5 0 M27.5 0 C64.73 1.3, 102.09 1.49, 141.5 0 M141.5 0 C160.5 -0.96, 170.31 9.35, 169 27.5 M141.5 0 C160.36 2.24, 171.29 11.09, 169 27.5 M169 27.5 C170.15 49.95, 167.8 68.02, 169 82.5 M169 27.5 C168.29 41.84, 169.8 57.36, 169 82.5 M169 82.5 C168.64 98.86, 158.44 108.14, 141.5 110 M169 82.5 C168.61 102.87, 160.38 110.3, 141.5 110 M141.5 110 C107.63 109.38, 69.04 108.09, 27.5 110 M141.5 110 C105.81 109.6, 69.93 108.84, 27.5 110 M27.5 110 C7.64 108.16, -1.94 99.09, 0 82.5 M27.5 110 C10.29 110.38, 0.77 99.48, 0 82.5 M0 82.5 C1.3 67.69, -0.47 48.86, 0 27.5 M0 82.5 C0.7 67.64, -0.05 51.77, 0 27.5 M0 27.5 C-1.16 8.43, 9.64 0.27, 27.5 0 M0 27.5 C-0.37 8.03, 11.03 0.08, 27.5 0" stroke="#000000" stroke-width="1" fill="none"></path></g><g transform="translate(60.31640625 268.81884765625) rotate(0 58.59375 24)"><text x="58.59375" y="0" font-family="Cascadia, Segoe UI Emoji" font-size="20px" fill="#000000" text-anchor="middle" style="white-space: pre;" direction="ltr" dominant-baseline="text-before-edge">EditText</text><text x="58.59375" y="24" font-family="Cascadia, Segoe UI Emoji" font-size="20px" fill="#000000" text-anchor="middle" style="white-space: pre;" direction="ltr" dominant-baseline="text-before-edge">type:HanZi</text></g><g transform="translate(38.09765625 40.447509765625) rotate(0 105.46875 12)"><text x="0" y="0" font-family="Cascadia, Segoe UI Emoji" font-size="20px" fill="#000000" text-anchor="start" style="white-space: pre;" direction="ltr" dominant-baseline="text-before-edge">Lattice:type=group</text></g><g stroke-linecap="round"><g transform="translate(97.76171875 335.783935546875) rotate(0 -4.260971662700172 64.21519644446673)"><path d="M0.02 -0.52 C-1.19 20.94, -6.15 107.72, -7.47 128.95 M-1.43 1.82 C-2.8 22.96, -7.29 106.45, -8.54 127.43" stroke="#e67700" stroke-width="1" fill="none"></path></g><g transform="translate(97.76171875 335.783935546875) rotate(0 -4.260971662700172 64.21519644446673)"><path d="M-18.06 98.29 C-12.81 105.73, -13.88 113.88, -8.96 125.82 M-16.32 97.77 C-14.34 106.55, -13.2 114.57, -9.52 126.46" stroke="#e67700" stroke-width="1" fill="none"></path></g><g transform="translate(97.76171875 335.783935546875) rotate(0 -4.260971662700172 64.21519644446673)"><path d="M2.42 99.45 C1.89 106.57, -4.96 114.39, -8.96 125.82 M4.17 98.93 C0.77 107.56, -3.47 115.27, -9.52 126.46" stroke="#e67700" stroke-width="1" fill="none"></path></g></g><mask></mask><g transform="translate(111.6171875 406.713134765625) rotate(0 93.75 12)"><text x="0" y="0" font-family="Cascadia, Segoe UI Emoji" font-size="20px" fill="#e67700" text-anchor="start" style="white-space: pre;" direction="ltr" dominant-baseline="text-before-edge">onCompositionend</text></g><g stroke-linecap="round" transform="translate(14.140625 468.642822265625) rotate(0 132.23828125 30.33203125)"><path d="M15.17 0 M15.17 0 C104.96 0.97, 193.62 -1.23, 249.31 0 M15.17 0 C75.65 2.22, 134.22 1.55, 249.31 0 M249.31 0 C260.61 1.69, 265.05 6, 264.48 15.17 M249.31 0 C258.86 0.98, 264.66 4.46, 264.48 15.17 M264.48 15.17 C266.13 21.45, 264.38 29.75, 264.48 45.5 M264.48 15.17 C263.8 23.97, 264.61 30.59, 264.48 45.5 M264.48 45.5 C264.3 54.67, 258.34 60.93, 249.31 60.66 M264.48 45.5 C266.74 54.55, 259.96 59.37, 249.31 60.66 M249.31 60.66 C167.97 57.91, 89.9 59.21, 15.17 60.66 M249.31 60.66 C156.14 61.48, 63.58 61.24, 15.17 60.66 M15.17 60.66 C6.95 58.69, -1.38 54.86, 0 45.5 M15.17 60.66 C7.04 59.78, -1.02 56.3, 0 45.5 M0 45.5 C-1.74 34.37, -1.03 25.58, 0 15.17 M0 45.5 C-0.76 38.77, 0.49 31.57, 0 15.17 M0 15.17 C1.41 4.58, 3.5 1.49, 15.17 0 M0 15.17 C-2.29 3.75, 6.72 1.69, 15.17 0" stroke="#000000" stroke-width="1" fill="none"></path></g><g transform="translate(29.19140625 486.974853515625) rotate(0 117.1875 12)"><text x="117.1875" y="0" font-family="Cascadia, Segoe UI Emoji" font-size="20px" fill="#000000" text-anchor="middle" style="white-space: pre;" direction="ltr" dominant-baseline="text-before-edge">filterText &amp;&amp; update</text></g><g stroke-linecap="round"><g transform="translate(100.35546875 539.042236328125) rotate(0 -2.4126617867499363 29.637801105603586)"><path d="M0.75 -0.09 C-0.13 9.89, -4.49 49.33, -5.58 59.2 M-0.31 -1.18 C-0.78 9.02, -2.74 50.24, -3.24 60.45" stroke="#000000" stroke-width="1" fill="none"></path></g><g transform="translate(100.35546875 539.042236328125) rotate(0 -2.4126617867499363 29.637801105603586)"><path d="M-12.27 30.63 C-10.72 38.2, -8.43 46.63, -1.29 59.12 M-11.23 32.11 C-10.29 39.3, -7.35 43.86, -2.39 61.44" stroke="#000000" stroke-width="1" fill="none"></path></g><g transform="translate(100.35546875 539.042236328125) rotate(0 -2.4126617867499363 29.637801105603586)"><path d="M8.2 31.61 C4.09 39.04, 0.73 47.2, -1.29 59.12 M9.24 33.1 C5.54 40.11, 3.83 44.45, -2.39 61.44" stroke="#000000" stroke-width="1" fill="none"></path></g></g><mask></mask><g stroke-linecap="round" transform="translate(14.94921875 606.115966796875) rotate(0 134.26953125 27.0859375)"><path d="M13.54 0 M13.54 0 C71.41 1.34, 132.82 0.98, 255 0 M13.54 0 C74.15 0.08, 135.22 0.68, 255 0 M255 0 C265.94 -1.39, 270.53 3.71, 268.54 13.54 M255 0 C261.88 0.78, 267.45 3.33, 268.54 13.54 M268.54 13.54 C270.09 22.58, 268.37 34.72, 268.54 40.63 M268.54 13.54 C267.89 21.77, 268.63 28.44, 268.54 40.63 M268.54 40.63 C268 49.73, 264.19 54.03, 255 54.17 M268.54 40.63 C266.64 48.82, 263.38 52.11, 255 54.17 M255 54.17 C160.21 54.56, 63.61 54.4, 13.54 54.17 M255 54.17 C172.8 56.61, 91.3 56.55, 13.54 54.17 M13.54 54.17 C3.95 54.77, -0.48 51.4, 0 40.63 M13.54 54.17 C6.42 52.27, -1.09 49.83, 0 40.63 M0 40.63 C-1.77 32.91, 0.36 20.24, 0 13.54 M0 40.63 C0.43 31.25, 0.69 24.61, 0 13.54 M0 13.54 C-1.03 2.84, 2.84 -0.71, 13.54 0 M0 13.54 C-0.97 4.39, 3.93 -0.34, 13.54 0" stroke="#000000" stroke-width="1" fill="none"></path></g><g transform="translate(84.765625 621.201904296875) rotate(0 64.453125 12)"><text x="64.453125" y="0" font-family="Cascadia, Segoe UI Emoji" font-size="20px" fill="#000000" text-anchor="middle" style="white-space: pre;" direction="ltr" dominant-baseline="text-before-edge">input-hanzi</text></g><g stroke-linecap="round"><g transform="translate(430.50390625 234.16892912873232) rotate(0 -65.06156372837722 7.298565331065326)"><path d="M0.29 -0.86 C-21.53 1.65, -108.59 12.79, -130.41 15.45 M-1.02 1.31 C-22.5 3.39, -106.9 10.97, -128.11 13.49" stroke="#000000" stroke-width="1" fill="none"></path></g><g transform="translate(430.50390625 234.16892912873232) rotate(0 -65.06156372837722 7.298565331065326)"><path d="M-102.53 -0.89 C-109.76 3.28, -119.51 10.72, -127.85 11.72 M-101.8 -0.58 C-106.34 2.69, -112.96 5.94, -128.64 12.73" stroke="#000000" stroke-width="1" fill="none"></path></g><g transform="translate(430.50390625 234.16892912873232) rotate(0 -65.06156372837722 7.298565331065326)"><path d="M-100.44 19.53 C-108.46 16.74, -118.92 17.22, -127.85 11.72 M-99.71 19.83 C-104.65 18.98, -111.69 18.1, -128.64 12.73" stroke="#000000" stroke-width="1" fill="none"></path></g></g><mask></mask><g stroke-linecap="round" transform="translate(408.96484375 174.576416015625) rotate(0 257.08984375 70.05078125)"><path d="M32 0 M32 0 C134.03 -0.1, 235.29 0.78, 482.18 0 M32 0 C134.06 0.19, 236.28 0.18, 482.18 0 M482.18 0 C504.29 0.15, 514.39 11.66, 514.18 32 M482.18 0 C502.16 0.64, 513.38 11.59, 514.18 32 M514.18 32 C516.19 56.46, 515.92 82.63, 514.18 108.1 M514.18 32 C514.47 57.93, 513.03 82.99, 514.18 108.1 M514.18 108.1 C512.77 129.23, 501.85 139.27, 482.18 140.1 M514.18 108.1 C512.55 131.09, 505.31 138.62, 482.18 140.1 M482.18 140.1 C323.86 142.46, 166.63 142.33, 32 140.1 M482.18 140.1 C351.14 142.34, 220.06 142.43, 32 140.1 M32 140.1 C9.28 138.95, 1.14 130.43, 0 108.1 M32 140.1 C12.52 141.64, -1.36 127.19, 0 108.1 M0 108.1 C0.19 85.05, 0.88 58.88, 0 32 M0 108.1 C0.38 78.72, 0.67 51.99, 0 32 M0 32 C0.46 12.24, 12.37 -0.33, 32 0 M0 32 C0.11 10.34, 8.44 -0.13, 32 0" stroke="#000000" stroke-width="1" fill="none"></path></g><g transform="translate(630.8984375 232.627197265625) rotate(0 35.15625 12)"><text x="35.15625" y="0" font-family="Cascadia, Segoe UI Emoji" font-size="20px" fill="#000000" text-anchor="middle" style="white-space: pre;" direction="ltr" dominant-baseline="text-before-edge">   ...</text></g><g stroke-linecap="round" transform="translate(450.2421875 192.302978515625) rotate(0 42.96484375 42.314453125)"><path d="M8.15 3.11 C8.15 3.11, 8.15 3.11, 8.15 3.11 M8.15 3.11 C8.15 3.11, 8.15 3.11, 8.15 3.11 M3.95 14.03 C9.57 10.05, 13.28 4.12, 15.1 1.2 M3.95 14.03 C6.48 11.41, 9.91 7.73, 15.1 1.2 M1.72 22.7 C5.43 16.73, 11.93 10.68, 21.4 0.06 M1.72 22.7 C7.52 15.7, 13.98 9.3, 21.4 0.06 M1.46 29.09 C12.83 19.47, 20.94 7.93, 26.39 0.42 M1.46 29.09 C9.7 20.96, 15.03 11.89, 26.39 0.42 M1.85 34.74 C9 29.31, 15.82 20.26, 32.03 0.02 M1.85 34.74 C11.7 23.21, 22.32 11.47, 32.03 0.02 M1.59 41.14 C11.03 29.77, 22.86 16.78, 37.02 0.38 M1.59 41.14 C11.72 27.8, 23.17 16.51, 37.02 0.38 M1.99 46.78 C16.26 29.58, 32.51 14.68, 42.66 -0.01 M1.99 46.78 C13.14 35.12, 24.97 21.34, 42.66 -0.01 M1.73 53.18 C17.36 34.45, 33.27 19.4, 47.65 0.35 M1.73 53.18 C14.19 38.3, 25.96 25.37, 47.65 0.35 M1.46 59.57 C14.31 44.31, 28.89 29.23, 52.64 0.71 M1.46 59.57 C15.76 43.79, 29.17 28.22, 52.64 0.71 M1.86 65.22 C15.82 45.22, 34.05 28.39, 58.28 0.31 M1.86 65.22 C21.69 43.35, 40.6 18.54, 58.28 0.31 M2.91 70.11 C27.55 43.05, 51.21 14.09, 63.27 0.67 M2.91 70.11 C26.74 43.91, 50.21 17.23, 63.27 0.67 M3.96 74.99 C22.91 52.73, 43.37 29.56, 68.91 0.28 M3.96 74.99 C21.03 53.57, 39.95 34.19, 68.91 0.28 M5.67 79.13 C27.98 54.99, 49.26 30.18, 71.93 2.9 M5.67 79.13 C18.69 64.42, 32.04 46.86, 71.93 2.9 M8.69 81.75 C28.59 56.91, 54 30.33, 76.26 4.02 M8.69 81.75 C30.92 54.72, 53.2 30.06, 76.26 4.02 M12.36 83.62 C37.6 54.5, 61.34 26.58, 80.59 5.13 M12.36 83.62 C38.97 51.69, 67.13 21.21, 80.59 5.13 M16.69 84.74 C32.31 70.07, 45.64 53.87, 82.95 8.51 M16.69 84.74 C42.52 55.67, 66.87 26.31, 82.95 8.51 M21.68 85.1 C40.63 64.79, 56.79 45.52, 84 13.4 M21.68 85.1 C45.5 57.19, 69.44 28.79, 84 13.4 M27.32 84.7 C42.39 70.41, 56.43 55.74, 85.06 18.29 M27.32 84.7 C42.93 68.17, 57.23 50.23, 85.06 18.29 M32.31 85.06 C44.53 72.73, 54.97 61.91, 86.76 22.42 M32.31 85.06 C46.49 68.18, 61.17 52.51, 86.76 22.42 M37.95 84.67 C56.13 64.2, 73.04 42.88, 87.16 28.06 M37.95 84.67 C52.94 66.24, 70.04 48.33, 87.16 28.06 M42.94 85.03 C56.63 67.89, 70.86 50.13, 86.9 34.46 M42.94 85.03 C54.73 71.82, 66.33 57.23, 86.9 34.46 M48.58 84.63 C64.43 66.59, 80.41 52.03, 86.63 40.86 M48.58 84.63 C61.53 69.8, 74.25 55.88, 86.63 40.86 M53.57 84.99 C61.85 75.4, 70.67 66.88, 87.03 46.5 M53.57 84.99 C65.5 71.45, 77.18 57.38, 87.03 46.5 M58.56 85.35 C66.08 79.78, 72.44 71.8, 86.77 52.9 M58.56 85.35 C64.75 79.13, 70.55 71.81, 86.77 52.9 M64.2 84.96 C72.13 74.97, 80.11 69.33, 86.51 59.3 M64.2 84.96 C72.69 76.48, 80.4 65.42, 86.51 59.3 M67.87 86.83 C72.7 80.8, 80.34 71.09, 86.9 64.94 M67.87 86.83 C72.89 82.48, 76.82 76.42, 86.9 64.94 M77.45 81.9 C82.69 78.39, 85.93 73.13, 87.95 69.83 M77.45 81.9 C79.84 78.48, 82.94 74.55, 87.95 69.83" stroke="#ced4da" stroke-width="0.5" fill="none"></path><path d="M21.16 0 M21.16 0 C30.93 -1.61, 39.25 0.02, 64.77 0 M21.16 0 C30.85 1.08, 41.91 -0.53, 64.77 0 M64.77 0 C77.03 0.27, 85.77 7.01, 85.93 21.16 M64.77 0 C77.94 -1.02, 85.51 9.12, 85.93 21.16 M85.93 21.16 C86.87 34.89, 87.94 48.67, 85.93 63.47 M85.93 21.16 C86.23 35.56, 86.78 50.49, 85.93 63.47 M85.93 63.47 C85.61 78.44, 78.39 82.74, 64.77 84.63 M85.93 63.47 C84.02 79.06, 77.79 84.22, 64.77 84.63 M64.77 84.63 C48.09 85.96, 29.86 85.29, 21.16 84.63 M64.77 84.63 C53.75 83.51, 41.6 84.85, 21.16 84.63 M21.16 84.63 C8.41 85.55, 0.41 77.06, 0 63.47 M21.16 84.63 C8.4 86.06, 1.26 75.95, 0 63.47 M0 63.47 C0.38 55.96, -1.52 45.84, 0 21.16 M0 63.47 C0.02 49.58, -0.9 36.11, 0 21.16 M0 21.16 C1.43 7.16, 5.68 -0.75, 21.16 0 M0 21.16 C1.58 8.18, 5.55 0.88, 21.16 0" stroke="#000000" stroke-width="1" fill="none"></path></g><g transform="translate(460.39453125 225.017431640625) rotate(0 32.8125 9.600000000000001)"><text x="32.8125" y="0" font-family="Cascadia, Segoe UI Emoji" font-size="16px" fill="#000000" text-anchor="middle" style="white-space: pre;" direction="ltr" dominant-baseline="text-before-edge">Lattice</text></g><g stroke-linecap="round" transform="translate(556.83984375 194.146728515625) rotate(0 42.759765625 39.9765625)"><path d="M7.81 2.81 C7.81 2.81, 7.81 2.81, 7.81 2.81 M7.81 2.81 C7.81 2.81, 7.81 2.81, 7.81 2.81 M3.61 13.74 C5.39 8.38, 11.62 6.08, 14.76 0.91 M3.61 13.74 C7.48 9.07, 11.89 4.73, 14.76 0.91 M2.04 21.64 C6.89 17.67, 10.32 10.04, 20.41 0.51 M2.04 21.64 C9.23 13.27, 16.04 4.49, 20.41 0.51 M1.77 28.04 C12.63 17.16, 21.82 6.02, 26.05 0.12 M1.77 28.04 C9.82 19.26, 16.92 10.22, 26.05 0.12 M2.17 33.69 C8.55 23.22, 17.53 16.8, 31.04 0.48 M2.17 33.69 C13.69 21.32, 23.49 10.35, 31.04 0.48 M1.91 40.08 C14.17 27.15, 28.45 10.19, 36.02 0.84 M1.91 40.08 C13.86 26, 27.76 11.27, 36.02 0.84 M2.3 45.73 C18.43 29.62, 31.71 11.51, 41.67 0.44 M2.3 45.73 C14.94 31.89, 27.72 16.58, 41.67 0.44 M2.04 52.12 C17.72 33.05, 34.11 12.87, 46.65 0.8 M2.04 52.12 C15.14 36.93, 29.23 21.78, 46.65 0.8 M0.47 60.03 C18.6 37.48, 36.03 17.38, 52.3 0.41 M0.47 60.03 C13.74 46.08, 25.11 29.69, 52.3 0.41 M1.52 64.92 C18.6 43.56, 33.61 26.03, 57.28 0.77 M1.52 64.92 C13.05 52.52, 23.78 37.88, 57.28 0.77 M2.57 69.81 C20.82 49.93, 39.02 30.9, 62.93 0.38 M2.57 69.81 C19.16 49.9, 36.76 29.6, 62.93 0.38 M4.28 73.94 C30 46.1, 53.34 20.8, 67.91 0.74 M4.28 73.94 C21.36 53.44, 39.27 33.51, 67.91 0.74 M7.29 76.57 C21.89 57.3, 41.75 39.82, 72.24 1.85 M7.29 76.57 C22.89 60.5, 37.34 42.95, 72.24 1.85 M10.31 79.19 C31.14 57.19, 50.16 32.68, 75.92 3.72 M10.31 79.19 C30.21 57.11, 49.38 35.14, 75.92 3.72 M14.64 80.31 C34.54 56.58, 52.02 35.53, 80.25 4.83 M14.64 80.31 C31.44 61.1, 46.43 41.23, 80.25 4.83 M18.32 82.17 C40.27 56.8, 62.89 29.18, 82.61 8.21 M18.32 82.17 C42.98 55.38, 67.11 26.87, 82.61 8.21 M23.31 82.53 C35.94 65.07, 51.29 51.44, 83.66 13.1 M23.31 82.53 C45.91 56.12, 68.26 30.54, 83.66 13.1 M28.95 82.14 C41.97 66, 56.62 51.3, 85.37 17.24 M28.95 82.14 C42 66.76, 54.33 51.34, 85.37 17.24 M33.94 82.5 C44.93 67.5, 56.03 54.87, 87.08 21.37 M33.94 82.5 C53.18 60.16, 72.94 37.03, 87.08 21.37 M39.58 82.11 C52.14 67.32, 60.17 56.42, 86.82 27.77 M39.58 82.11 C52.95 66.24, 68.09 50.93, 86.82 27.77 M44.57 82.47 C60.37 64.63, 76.67 44.79, 87.21 33.41 M44.57 82.47 C57.22 68.28, 70.05 52.39, 87.21 33.41 M50.21 82.07 C61.25 69.21, 74.57 53.07, 86.95 39.81 M50.21 82.07 C65.39 65.47, 79.39 48.45, 86.95 39.81 M55.2 82.43 C65.54 71.28, 73.84 64.01, 86.69 46.21 M55.2 82.43 C66.36 69.62, 78.84 56.24, 86.69 46.21 M60.18 82.79 C64.9 76.03, 74 67.04, 87.08 51.85 M60.18 82.79 C67.22 73.98, 75.47 64.11, 87.08 51.85 M67.14 80.89 C71.47 73.38, 80.08 68.37, 86.82 58.25 M67.14 80.89 C71.33 75.05, 75.32 70.72, 86.82 58.25 M73.44 79.74 C75.77 75.38, 82.53 70.8, 85.9 65.4 M73.44 79.74 C78.22 74.17, 82.86 70.72, 85.9 65.4" stroke="#ced4da" stroke-width="0.5" fill="none"></path><path d="M19.99 0 M19.99 0 C33.57 0.16, 48.53 -0.67, 65.53 0 M19.99 0 C34.96 1, 49.42 -0.01, 65.53 0 M65.53 0 C79.49 -0.77, 84.26 6.21, 85.52 19.99 M65.53 0 C81.16 0.27, 85.92 4.55, 85.52 19.99 M85.52 19.99 C86.99 33.52, 86.8 50.85, 85.52 59.96 M85.52 19.99 C84.66 31.84, 84.9 46.17, 85.52 59.96 M85.52 59.96 C84.81 75.2, 78.2 80.47, 65.53 79.95 M85.52 59.96 C85.4 72.29, 79 80.2, 65.53 79.95 M65.53 79.95 C49.18 80.45, 35.2 81.35, 19.99 79.95 M65.53 79.95 C55.08 79.46, 43.3 78.93, 19.99 79.95 M19.99 79.95 C6.71 79.84, 0.84 73.4, 0 59.96 M19.99 79.95 C5.47 80.82, -1.39 74.37, 0 59.96 M0 59.96 C-1.37 48.8, 0.78 34.93, 0 19.99 M0 59.96 C-0.73 45.32, -0.06 30.8, 0 19.99 M0 19.99 C1.82 8.62, 7.89 -1.87, 19.99 0 M0 19.99 C1.84 6.23, 4.9 -0.86, 19.99 0" stroke="#000000" stroke-width="1" fill="none"></path></g><g transform="translate(566.787109375 224.523291015625) rotate(0 32.8125 9.600000000000001)"><text x="32.8125" y="0" font-family="Cascadia, Segoe UI Emoji" font-size="16px" fill="#000000" text-anchor="middle" style="white-space: pre;" direction="ltr" dominant-baseline="text-before-edge">Lattice</text></g><g transform="translate(411.12890625 138.320068359375) rotate(0 103.75 12)"><text x="0" y="0" font-family="Cascadia, Segoe UI Emoji" font-size="20px" fill="#000000" text-anchor="start" style="white-space: pre;" direction="ltr" dominant-baseline="text-before-edge">Editor：type=group</text></g><g stroke-linecap="round" transform="translate(220.36328125 135.01708984375) rotate(0 31.71484375 106.25)"><path d="M4.22 3.67 C4.22 3.67, 4.22 3.67, 4.22 3.67 M4.22 3.67 C4.22 3.67, 4.22 3.67, 4.22 3.67 M1.34 13.09 C4.08 12.31, 5.15 9.73, 10.52 2.52 M1.34 13.09 C4.37 9.24, 8.23 4.84, 10.52 2.52 M1.07 19.48 C6.14 15.76, 8.07 11.56, 16.82 1.37 M1.07 19.48 C6.49 13.99, 10.37 8.14, 16.82 1.37 M1.47 25.13 C6.41 17.06, 10.99 12.28, 22.46 0.98 M1.47 25.13 C7.19 18.43, 12.3 12.76, 22.46 0.98 M1.21 31.52 C8.13 21.83, 15.49 11.77, 27.45 1.34 M1.21 31.52 C8.9 23.41, 15.72 15.24, 27.45 1.34 M1.6 37.17 C13.59 24.19, 24.65 11.31, 32.44 1.7 M1.6 37.17 C10.84 28.29, 19.15 16.22, 32.44 1.7 M1.34 43.57 C8.26 34.83, 17.49 24.63, 38.08 1.3 M1.34 43.57 C14.56 27.4, 27.38 12.86, 38.08 1.3 M1.08 49.96 C16.01 31.23, 30.69 16.09, 43.07 1.66 M1.08 49.96 C10.18 41.23, 18.5 30.78, 43.07 1.66 M1.47 55.61 C17.26 39.27, 31.14 20.87, 48.05 2.02 M1.47 55.61 C11.94 42.44, 23.56 30.9, 48.05 2.02 M1.21 62 C13.97 48.26, 26.83 33.68, 53.7 1.63 M1.21 62 C21.14 40.29, 40.53 18.08, 53.7 1.63 M1.61 67.65 C16.56 50.2, 32.99 31.7, 57.37 3.5 M1.61 67.65 C13.64 55.2, 24.95 41.12, 57.37 3.5 M1.34 74.04 C13.88 58.13, 28.43 41.97, 60.39 6.12 M1.34 74.04 C18.95 52.38, 37.84 30.14, 60.39 6.12 M1.08 80.44 C20.85 57.94, 36.45 37.57, 63.41 8.75 M1.08 80.44 C17.52 61.33, 33.39 42.32, 63.41 8.75 M1.48 86.09 C12.5 70.51, 28.23 57.59, 64.46 13.63 M1.48 86.09 C18.7 66.91, 34.88 48.73, 64.46 13.63 M1.22 92.48 C25.75 62.4, 52.57 36.08, 64.85 19.28 M1.22 92.48 C17.61 73.91, 33.23 55.59, 64.85 19.28 M1.61 98.13 C16.25 81.23, 32.48 65.56, 64.59 25.67 M1.61 98.13 C24.71 71.84, 47.25 46.09, 64.59 25.67 M1.35 104.52 C20.02 85.01, 37.12 62.36, 64.99 31.32 M1.35 104.52 C19.52 84.33, 37.09 63.49, 64.99 31.32 M1.09 110.92 C22.15 85.17, 44.13 63.99, 64.73 37.72 M1.09 110.92 C17.48 92.68, 32.74 74.8, 64.73 37.72 M1.48 116.57 C21.14 91.98, 45.86 66.35, 64.46 44.11 M1.48 116.57 C23.66 90.89, 46.94 65.9, 64.46 44.11 M1.22 122.96 C16.43 106.69, 31.31 87.94, 64.86 49.76 M1.22 122.96 C22.56 99.93, 43.18 76.53, 64.86 49.76 M1.62 128.61 C25.04 103.62, 46.78 75.91, 64.6 56.15 M1.62 128.61 C19.72 109.13, 35.08 90.55, 64.6 56.15 M1.35 135 C27.05 106.59, 51.78 77.69, 64.99 61.8 M1.35 135 C14.97 116.67, 30.27 100.03, 64.99 61.8 M1.09 141.4 C15.26 125.59, 33.14 105.62, 64.73 68.19 M1.09 141.4 C24.48 113.71, 47.42 86.96, 64.73 68.19 M1.49 147.04 C21.85 123.12, 42.04 97.16, 64.47 74.59 M1.49 147.04 C14.96 131.03, 28.97 115.71, 64.47 74.59 M1.23 153.44 C21.17 129.84, 40.67 107.79, 64.86 80.24 M1.23 153.44 C25.78 125.23, 50.06 97.12, 64.86 80.24 M1.62 159.09 C22.4 131.43, 48.38 107.7, 64.6 86.63 M1.62 159.09 C25.34 134.26, 47 108.19, 64.6 86.63 M1.36 165.48 C16.25 148.45, 29.09 133.55, 65 92.28 M1.36 165.48 C25.69 137.49, 48.24 110.2, 65 92.28 M1.1 171.88 C13.92 157.66, 29.07 142.53, 64.74 98.67 M1.1 171.88 C18.97 150.11, 38.94 127.9, 64.74 98.67 M1.49 177.52 C13.2 162.51, 26.82 147.7, 64.47 105.07 M1.49 177.52 C14.94 161.61, 28.24 146.16, 64.47 105.07 M1.23 183.92 C26.64 154.47, 50.28 127.34, 64.87 110.72 M1.23 183.92 C25.21 158.48, 47.82 131.26, 64.87 110.72 M1.63 189.57 C28.18 160.81, 51.39 133.96, 64.61 117.11 M1.63 189.57 C19.96 167.66, 39.61 145.33, 64.61 117.11 M1.36 195.96 C20.45 175.12, 39.06 155.94, 65 122.76 M1.36 195.96 C15.66 178.55, 31.73 161.14, 65 122.76 M1.76 201.61 C23.9 176.07, 48.33 148.09, 64.74 129.15 M1.76 201.61 C15.13 186.09, 28.13 171.75, 64.74 129.15 M3.47 205.74 C16.06 192.13, 30.79 176.83, 65.14 134.8 M3.47 205.74 C18.39 188.08, 33.26 170.66, 65.14 134.8 M5.17 209.87 C28.68 182.01, 51.47 157.67, 64.87 141.19 M5.17 209.87 C20.17 191.82, 37.76 172.38, 64.87 141.19 M8.85 211.74 C27.98 188.61, 47.6 165.67, 64.61 147.59 M8.85 211.74 C25.72 192.62, 43.53 172.73, 64.61 147.59 M14.49 211.35 C32.59 190.48, 51.48 168.88, 65.01 153.24 M14.49 211.35 C24.09 200.47, 36.3 187.73, 65.01 153.24 M19.48 211.71 C32.13 195.22, 46.77 181.49, 64.75 159.63 M19.48 211.71 C38.47 190.26, 56.25 170.17, 64.75 159.63 M24.46 212.07 C36.74 197.89, 48.37 184.44, 65.14 165.28 M24.46 212.07 C33.89 201.33, 45.65 189.14, 65.14 165.28 M30.11 211.67 C38.1 200.08, 48.19 193.57, 64.88 171.67 M30.11 211.67 C38.43 201.34, 46.96 192.01, 64.88 171.67 M35.09 212.03 C46.43 199.72, 53.99 189.87, 64.62 178.07 M35.09 212.03 C43.28 203.11, 52.33 192.84, 64.62 178.07 M40.08 212.39 C49.04 204.52, 57.55 193.75, 65.01 183.71 M40.08 212.39 C46.65 204.9, 53.26 197.27, 65.01 183.71 M45.72 212 C49.56 206.67, 56.28 202.96, 64.75 190.11 M45.72 212 C51.28 207.17, 55.57 201.02, 64.75 190.11 M50.71 212.36 C52.43 210.17, 56.03 205.44, 63.83 197.27 M50.71 212.36 C55.71 206.45, 61.05 200.2, 63.83 197.27" stroke="#228be6" stroke-width="0.5" fill="none"></path><path d="M15.86 0 M15.86 0 C26.32 1.82, 39.16 -0.37, 47.57 0 M15.86 0 C27.21 0.11, 37.5 -1, 47.57 0 M47.57 0 C59.81 -0.21, 61.71 6.57, 63.43 15.86 M47.57 0 C57.01 -0.15, 63.45 4.83, 63.43 15.86 M63.43 15.86 C61.44 62.68, 64.11 109.83, 63.43 196.64 M63.43 15.86 C63.74 72.1, 63.7 128.26, 63.43 196.64 M63.43 196.64 C62.22 207.04, 57.45 210.58, 47.57 212.5 M63.43 196.64 C61.52 207.65, 59.73 212.62, 47.57 212.5 M47.57 212.5 C37.48 213.75, 26.13 214.08, 15.86 212.5 M47.57 212.5 C38.97 212.66, 31.34 211.87, 15.86 212.5 M15.86 212.5 C4.71 210.89, -0.25 208.69, 0 196.64 M15.86 212.5 C4.17 212.23, -0.99 209.36, 0 196.64 M0 196.64 C0.38 140.17, 1.13 87.42, 0 15.86 M0 196.64 C1.18 151.33, 0.76 104.01, 0 15.86 M0 15.86 C-0.44 3.71, 5.67 1.07, 15.86 0 M0 15.86 C-1.96 7.08, 6.05 -0.34, 15.86 0" stroke="#000000" stroke-width="1" fill="none"></path></g><g transform="translate(232.078125 229.26708984375) rotate(0 20 12)"><text x="20" y="0" font-family="Cascadia, Segoe UI Emoji" font-size="20px" fill="#000000" text-anchor="middle" style="white-space: pre;" direction="ltr" dominant-baseline="text-before-edge">事件</text></g><g stroke-linecap="round"><g transform="translate(305.0703125 637.59912109375) rotate(0 12.132418584363677 -149.769694320485)"><path d="M0.44 0.27 C9.83 -19.15, 62.11 -66.98, 56.71 -116.99 C51.32 -167, -17.16 -269.24, -31.94 -299.8 M-0.79 -0.64 C8.47 -20.37, 61.48 -69.16, 56.14 -118.85 C50.8 -168.55, -18.18 -268.63, -32.84 -298.81" stroke="#000000" stroke-width="1" fill="none"></path></g><g transform="translate(305.0703125 637.59912109375) rotate(0 12.132418584363677 -149.769694320485)"><path d="M-9.42 -278.32 C-16.62 -286.28, -26.1 -292.71, -34.82 -300.33 M-9.6 -278.68 C-17.34 -285.49, -25.77 -291.96, -32.61 -298.2" stroke="#000000" stroke-width="1" fill="none"></path></g><g transform="translate(305.0703125 637.59912109375) rotate(0 12.132418584363677 -149.769694320485)"><path d="M-27.2 -268.07 C-28.42 -279.51, -31.99 -289.35, -34.82 -300.33 M-27.37 -268.43 C-28.98 -278.82, -31.25 -288.84, -32.61 -298.2" stroke="#000000" stroke-width="1" fill="none"></path></g></g><mask></mask><g stroke-linecap="round"><g transform="translate(282.609375 313.83740234375) rotate(0 231.02177108035426 0.15475883918674072)"><path d="M0.65 0.96 C59.68 7.08, 276.07 42.31, 353.05 36.07 C430.02 29.82, 444.3 -24.64, 462.5 -36.5 M-0.46 0.41 C58.57 6.27, 275.35 40.41, 352.47 34.43 C429.58 28.44, 443.82 -23.58, 462.23 -35.52" stroke="#000000" stroke-width="1" fill="none"></path></g><g transform="translate(282.609375 313.83740234375) rotate(0 231.02177108035426 0.15475883918674072)"><path d="M452.64 -6.51 C455.05 -11.93, 454.75 -18.06, 463.54 -35.33 M450.45 -7.23 C453.42 -15.33, 457.33 -20.55, 463.06 -35.53" stroke="#000000" stroke-width="1" fill="none"></path></g><g transform="translate(282.609375 313.83740234375) rotate(0 231.02177108035426 0.15475883918674072)"><path d="M437.36 -20.21 C442.84 -22.89, 445.7 -26.19, 463.54 -35.33 M435.17 -20.93 C441.87 -25.51, 449.54 -27.37, 463.06 -35.53" stroke="#000000" stroke-width="1" fill="none"></path></g></g><mask></mask><g stroke-linecap="round" transform="translate(721.05859375 196.63427734375) rotate(0 80.658203125 34)"><path d="M5.12 34.93 C5.12 34.93, 5.12 34.93, 5.12 34.93 M5.12 34.93 C5.12 34.93, 5.12 34.93, 5.12 34.93 M8.14 37.55 C9.42 34.08, 12.75 31.87, 14.7 30.01 M8.14 37.55 C10.3 35.15, 11.24 33.26, 14.7 30.01 M11.16 40.18 C14.6 35.75, 21.18 32.17, 22.97 26.59 M11.16 40.18 C13.08 36.73, 15.79 34.88, 22.97 26.59 M14.84 42.05 C21.15 35.48, 25.64 29.91, 31.24 23.18 M14.84 42.05 C18.73 36.1, 24 32.72, 31.24 23.18 M18.51 43.92 C25.9 35.81, 30.41 29.5, 39.51 19.77 M18.51 43.92 C26.59 35.16, 33.02 27.4, 39.51 19.77 M22.19 45.79 C33 34.99, 38.35 26.67, 47.77 16.35 M22.19 45.79 C27.35 39.31, 34.51 32.37, 47.77 16.35 M26.52 46.9 C34.21 38.11, 43.1 24.65, 56.04 12.94 M26.52 46.9 C37.41 34.58, 47.67 24.05, 56.04 12.94 M30.19 48.77 C42.68 33.35, 56.35 18.38, 64.31 9.53 M30.19 48.77 C38.51 39.06, 47.39 28.25, 64.31 9.53 M34.52 49.89 C43.86 41.08, 52.03 30.7, 73.23 5.36 M34.52 49.89 C45.32 37.78, 54.63 28.03, 73.23 5.36 M38.2 51.76 C52.53 35.88, 63.78 22.93, 79.53 4.21 M38.2 51.76 C50.94 36.75, 62.51 21.75, 79.53 4.21 M41.87 53.62 C52.14 40.42, 63.08 27.44, 85.83 3.06 M41.87 53.62 C50.41 43.86, 60.4 32.75, 85.83 3.06 M46.2 54.74 C63.59 38.45, 75.45 19.45, 89.5 4.93 M46.2 54.74 C59.59 39.25, 74.47 21.83, 89.5 4.93 M49.88 56.61 C61.44 45.84, 70.02 31.73, 93.83 6.04 M49.88 56.61 C66.38 37.55, 82.2 19.35, 93.83 6.04 M54.21 57.72 C69.85 39.83, 87.81 22.22, 97.51 7.91 M54.21 57.72 C67.86 42.27, 81.18 28.75, 97.51 7.91 M57.88 59.59 C73.94 41, 91.22 19.47, 101.84 9.03 M57.88 59.59 C73.29 40.83, 91.16 21.87, 101.84 9.03 M62.22 60.71 C79.7 41.85, 96.44 23.63, 105.52 10.9 M62.22 60.71 C80.18 41.97, 97.26 22.45, 105.52 10.9 M65.89 62.58 C77.71 48.67, 90.71 34.01, 109.19 12.77 M65.89 62.58 C81.04 47.07, 95.39 30.12, 109.19 12.77 M70.22 63.69 C83.39 47.1, 99.41 28.5, 113.52 13.88 M70.22 63.69 C79.46 50.88, 90.53 40.14, 113.52 13.88 M73.9 65.56 C89.29 45.03, 108.47 26.52, 117.2 15.75 M73.9 65.56 C83.49 53.24, 94.4 42.49, 117.2 15.75 M78.88 65.92 C91.81 54.33, 100.73 40.2, 120.87 17.62 M78.88 65.92 C86.87 55.52, 96.37 46.76, 120.87 17.62 M82.56 67.79 C91.38 58.42, 97.71 47.91, 124.55 19.49 M82.56 67.79 C93.9 55.23, 105.76 40.43, 124.55 19.49 M90.17 65.13 C101.35 52.34, 115.86 37.14, 128.88 20.61 M90.17 65.13 C104.09 47.65, 117.98 31.46, 128.88 20.61 M98.44 61.72 C112.44 48.07, 122.37 32.05, 132.55 22.47 M98.44 61.72 C111.34 47.16, 125.1 31.47, 132.55 22.47 M106.05 59.06 C116.76 49.52, 124.37 35.86, 136.23 24.34 M106.05 59.06 C116.41 46.29, 126.53 35.01, 136.23 24.34 M114.32 55.65 C123.16 45.91, 130.74 38.19, 139.9 26.21 M114.32 55.65 C122.68 46.89, 130.93 38.07, 139.9 26.21 M122.58 52.23 C128.77 44.22, 133.28 39.85, 144.23 27.33 M122.58 52.23 C126.99 46.14, 130.17 41.09, 144.23 27.33 M130.85 48.82 C135.47 43.02, 144.01 36.09, 147.91 29.2 M130.85 48.82 C136.41 43.55, 140.52 38.29, 147.91 29.2 M138.46 46.16 C140.62 43.31, 144.48 38.79, 150.93 31.82 M138.46 46.16 C143.29 40.22, 148.47 34.43, 150.93 31.82 M144.1 45.77 C147.28 43.28, 148.6 39.97, 154.6 33.69 M144.1 45.77 C147.85 41.63, 152.7 36.24, 154.6 33.69" stroke="#228be6" stroke-width="0.5" fill="none"></path><path d="M101.25 8.75 M101.25 8.75 C110.38 14.01, 121.15 18.79, 141.07 26.25 M101.25 8.75 C110.48 11.39, 119.58 16.36, 141.07 26.25 M141.07 26.25 C160.76 33.21, 160.27 35.11, 141.07 43.75 M141.07 26.25 C163.48 33.42, 162.01 36.85, 141.07 43.75 M141.07 43.75 C125.44 49.35, 112.37 56.49, 101.25 59.25 M141.07 43.75 C129.16 49.32, 118.19 53.57, 101.25 59.25 M101.25 59.25 C81.93 68.07, 82.75 68.97, 60.75 59.25 M101.25 59.25 C82.21 65.83, 80.26 66.69, 60.75 59.25 M60.75 59.25 C52.41 57.86, 41.72 51.16, 20.25 43.75 M60.75 59.25 C47.07 53.64, 32.23 48.74, 20.25 43.75 M20.25 43.75 C1.93 34.45, -0.04 36.22, 20.25 26.25 M20.25 43.75 C-1.75 36.31, -0.85 37.29, 20.25 26.25 M20.25 26.25 C30.53 20.56, 39.35 18.71, 60.75 8.75 M20.25 26.25 C32.2 20.99, 46.48 15.16, 60.75 8.75 M60.75 8.75 C80.71 -1.36, 80.89 -1.49, 101.25 8.75 M60.75 8.75 C80.15 2.28, 80.81 1.4, 101.25 8.75" stroke="#000000" stroke-width="1" fill="none"></path></g><g transform="translate(781.8876953125 218.63427734375) rotate(0 20 12)"><text x="20" y="0" font-family="Cascadia, Segoe UI Emoji" font-size="20px" fill="#000000" text-anchor="middle" style="white-space: pre;" direction="ltr" dominant-baseline="text-before-edge">事件</text></g><g stroke-linecap="round"><g transform="translate(813.390625 191.81005859375) rotate(0 -333.950954027772 -73.95202162579793)"><path d="M-0.12 -1.08 C-53.85 -25.75, -210.07 -136.81, -321.3 -147.81 C-432.54 -158.81, -609.63 -80.59, -667.51 -67.09 M-1.64 0.96 C-55.08 -23.57, -207.93 -135.4, -318.95 -146.6 C-429.97 -157.8, -609.53 -79.68, -667.78 -66.24" stroke="#000000" stroke-width="1" fill="none"></path></g><g transform="translate(813.390625 191.81005859375) rotate(0 -333.950954027772 -73.95202162579793)"><path d="M-645.82 -85.69 C-654.31 -75.83, -664.05 -70.51, -668.76 -66.46 M-644.54 -85.48 C-649.1 -80.6, -655.13 -75.79, -668.39 -65.89" stroke="#000000" stroke-width="1" fill="none"></path></g><g transform="translate(813.390625 191.81005859375) rotate(0 -333.950954027772 -73.95202162579793)"><path d="M-639.61 -66.13 C-650.56 -63.92, -662.73 -66.25, -668.76 -66.46 M-638.33 -65.92 C-644.14 -65.58, -651.6 -65.26, -668.39 -65.89" stroke="#000000" stroke-width="1" fill="none"></path></g></g><mask></mask><g transform="translate(520.265625 360.39599609375) rotate(0 70.3125 12)"><text x="0" y="0" font-family="Cascadia, Segoe UI Emoji" font-size="20px" fill="#000000" text-anchor="start" style="white-space: pre;" direction="ltr" dominant-baseline="text-before-edge">getPolyphone</text></g><g transform="translate(442.734375 10) rotate(0 70.3125 12)"><text x="0" y="0" font-family="Cascadia, Segoe UI Emoji" font-size="20px" fill="#000000" text-anchor="start" style="white-space: pre;" direction="ltr" dominant-baseline="text-before-edge">setPolyPhone</text></g></svg>