<svg version="1.1" xmlns="http://www.w3.org/2000/svg" viewBox="0 0 1141.18359375 541.37890625" width="2282.3671875" height="1082.7578125">
  <!-- svg-source:excalidraw -->
  
  <defs>
    <style class="style-fonts">
      @font-face {
        font-family: "Virgil";
        src: url("https://excalidraw.com/Virgil.woff2");
      }
      @font-face {
        font-family: "Cascadia";
        src: url("https://excalidraw.com/Cascadia.woff2");
      }
    </style>
  </defs>
  <rect x="0" y="0" width="1141.18359375" height="541.37890625" fill="#ffffff"></rect><g stroke-linecap="round" transform="translate(10 10) rotate(0 560.591796875 260.689453125)"><path d="M32 0 M32 0 C284.02 0.43, 535.32 0.18, 1089.18 0 M32 0 C419.38 -0.36, 806.39 -0.38, 1089.18 0 M1089.18 0 C1109.46 -1.8, 1121 11.78, 1121.18 32 M1089.18 0 C1111.46 2.08, 1123.28 8.47, 1121.18 32 M1121.18 32 C1121.8 169.05, 1120.12 304.19, 1121.18 489.38 M1121.18 32 C1121.38 146.01, 1121.41 259.3, 1121.18 489.38 M1121.18 489.38 C1121.01 512.14, 1111.78 520.08, 1089.18 521.38 M1121.18 489.38 C1121.67 508.75, 1111.79 522.74, 1089.18 521.38 M1089.18 521.38 C813.95 519.95, 538.23 520.05, 32 521.38 M1089.18 521.38 C669.45 521.17, 250.39 521.45, 32 521.38 M32 521.38 C11.7 521.56, -1.88 509.57, 0 489.38 M32 521.38 C10.28 520.18, 1.15 509.54, 0 489.38 M0 489.38 C0.96 342.46, 0.85 194.25, 0 32 M0 489.38 C-0.71 387.3, -1.07 285.04, 0 32 M0 32 C1.11 10.87, 11.47 -1.98, 32 0 M0 32 C0.8 11.86, 9.87 -0.39, 32 0" stroke="#000000" stroke-width="1" fill="none"></path></g><g stroke-linecap="round" transform="translate(71.62890625 73.8828125) rotate(0 62.462890625 77.859375)"><path d="M7.66 7.98 C7.66 7.98, 7.66 7.98, 7.66 7.98 M7.66 7.98 C7.66 7.98, 7.66 7.98, 7.66 7.98 M7.4 14.38 C10.21 9.88, 13.88 5.68, 17.89 2.3 M7.4 14.38 C11.52 10.42, 14.43 6.66, 17.89 2.3 M2.54 26.06 C10.63 18.15, 15.28 11.16, 24.19 1.15 M2.54 26.06 C11.08 17.34, 19.29 7.36, 24.19 1.15 M2.94 31.7 C12.13 21.58, 17.76 10.83, 29.83 0.76 M2.94 31.7 C12.12 19.98, 23.25 8.28, 29.83 0.76 M2.67 38.1 C12.12 25.91, 25.73 12.52, 33.51 2.63 M2.67 38.1 C14.74 25.45, 25.83 10.26, 33.51 2.63 M2.41 44.5 C13.01 31.17, 26.95 15.05, 39.15 2.23 M2.41 44.5 C13.23 31.85, 22.95 21.01, 39.15 2.23 M2.81 50.14 C15.31 37.19, 27.29 22.63, 44.14 2.59 M2.81 50.14 C18.84 31.16, 34.51 13.81, 44.14 2.59 M2.55 56.54 C16.58 43.5, 30.22 28.18, 49.78 2.2 M2.55 56.54 C12.31 46.2, 22 34.27, 49.78 2.2 M2.29 62.94 C17.89 43.7, 36.97 22.24, 54.77 2.56 M2.29 62.94 C17.98 44.8, 33.27 26.86, 54.77 2.56 M2.68 68.58 C17.6 54.8, 29.2 40.43, 60.41 2.17 M2.68 68.58 C20.17 48.19, 38.23 26.09, 60.41 2.17 M2.42 74.98 C20.22 52.96, 39.59 33.26, 65.4 2.53 M2.42 74.98 C22.62 51.19, 44.76 27.82, 65.4 2.53 M2.16 81.38 C17.19 63.36, 32.03 48.22, 70.39 2.89 M2.16 81.38 C22.99 56.84, 42.6 34.09, 70.39 2.89 M2.55 87.02 C29.42 55.08, 53.41 26.46, 76.03 2.49 M2.55 87.02 C30.21 57.09, 56.39 25.56, 76.03 2.49 M2.29 93.42 C32.31 60.69, 60.32 26.39, 81.02 2.85 M2.29 93.42 C23.15 69.64, 43.92 46.2, 81.02 2.85 M2.68 99.06 C25.14 71.31, 52.08 44.89, 86.66 2.46 M2.68 99.06 C28.37 68.47, 54.52 39.43, 86.66 2.46 M2.42 105.46 C24.51 77.79, 48.81 46.97, 91.65 2.82 M2.42 105.46 C22.26 83.07, 41.41 60.13, 91.65 2.82 M2.16 111.86 C25.41 82.09, 52.74 53.67, 97.29 2.42 M2.16 111.86 C41 68.5, 77.4 24.98, 97.29 2.42 M2.56 117.5 C25.7 94.32, 43.85 69.7, 102.93 2.03 M2.56 117.5 C41.95 72.29, 81.92 25.91, 102.93 2.03 M0.98 125.41 C24.46 98.1, 50.36 68.98, 107.26 3.14 M0.98 125.41 C27.4 93.4, 57.3 59.4, 107.26 3.14 M2.03 130.29 C36.72 89.94, 72.63 50.72, 110.94 5.01 M2.03 130.29 C41.53 85.26, 80.24 39.47, 110.94 5.01 M2.43 135.94 C39.04 94.54, 70.37 52.84, 115.27 6.13 M2.43 135.94 C32.12 101.24, 61.09 65.09, 115.27 6.13 M4.13 140.07 C33.42 104.44, 68.38 67.54, 117.63 9.51 M4.13 140.07 C33.47 106.82, 61.37 72.79, 117.63 9.51 M5.84 144.2 C28.8 116.1, 54.2 90.48, 120.65 12.13 M5.84 144.2 C49.36 92.92, 93.58 41.23, 120.65 12.13 M8.2 147.58 C54.98 95.91, 98.78 45.82, 122.36 16.26 M8.2 147.58 C51.72 96.97, 95.33 45.77, 122.36 16.26 M11.22 150.21 C37.77 121.15, 63.42 91.12, 124.72 19.64 M11.22 150.21 C45.36 111.4, 80.11 72.71, 124.72 19.64 M14.24 152.83 C45.27 114.94, 78.68 81.28, 125.77 24.53 M14.24 152.83 C38.83 125.45, 63.09 97.95, 125.77 24.53 M17.92 154.7 C44.35 123.42, 75.87 88.66, 124.85 31.68 M17.92 154.7 C52.14 115.38, 88.08 76.56, 124.85 31.68 M22.25 155.82 C47.75 125.18, 77.79 95.73, 125.25 37.33 M22.25 155.82 C62.59 110.79, 101.58 63.39, 125.25 37.33 M26.58 156.93 C61.57 115.89, 99.11 74, 124.99 43.72 M26.58 156.93 C51.4 128.09, 75.3 98.35, 124.99 43.72 M31.57 157.29 C59.67 127.39, 86.56 94.42, 125.38 49.37 M31.57 157.29 C59.91 125.5, 88.53 92.52, 125.38 49.37 M36.55 157.65 C71.88 119.27, 101.93 81.33, 125.12 55.77 M36.55 157.65 C67.76 120.78, 98.66 86.44, 125.12 55.77 M42.2 157.26 C62.64 134.49, 82.09 110.3, 124.86 62.16 M42.2 157.26 C69.67 125.81, 97.48 94.51, 124.86 62.16 M47.18 157.62 C74.69 125.44, 100.56 94.42, 125.25 67.81 M47.18 157.62 C73.76 125.99, 101.73 95.53, 125.25 67.81 M52.83 157.22 C70.31 135.52, 90.6 115.2, 124.99 74.2 M52.83 157.22 C69.05 141.31, 83.67 123.44, 124.99 74.2 M57.81 157.58 C78.25 135.25, 95.78 114.63, 125.39 79.85 M57.81 157.58 C72.69 139.17, 89.18 122.53, 125.39 79.85 M63.46 157.19 C77.46 141.35, 90.73 127.54, 125.13 86.24 M63.46 157.19 C77.15 141.48, 90.28 126.44, 125.13 86.24 M68.44 157.55 C79.08 143.75, 92.66 129.84, 124.86 92.64 M68.44 157.55 C82.48 141.15, 96.47 125.27, 124.86 92.64 M73.43 157.91 C93.27 134.18, 113.64 110.17, 125.26 98.29 M73.43 157.91 C85.59 142.58, 99.62 128.07, 125.26 98.29 M79.07 157.51 C92.64 140.53, 105.93 126.4, 125 104.68 M79.07 157.51 C95.46 138.9, 110.54 120.53, 125 104.68 M84.06 157.87 C93.65 147.76, 99.6 138.78, 125.39 110.33 M84.06 157.87 C96.63 143.79, 109.57 129.01, 125.39 110.33 M89.7 157.48 C101.05 147.13, 111.9 131.18, 125.13 116.72 M89.7 157.48 C99.93 145.2, 109.44 134.05, 125.13 116.72 M95.35 157.08 C103.78 145.95, 116.68 131.01, 124.87 123.12 M95.35 157.08 C101.25 150.67, 107.44 142.89, 124.87 123.12 M101.65 155.93 C108.52 149.76, 113.44 145.06, 127.23 126.5 M101.65 155.93 C109.74 146.34, 118.64 136.07, 127.23 126.5 M107.94 154.79 C112.67 150.76, 116.39 147.18, 126.31 133.65 M107.94 154.79 C113.43 148.18, 118.95 142.28, 126.31 133.65" stroke="#ced4da" stroke-width="0.5" fill="none"></path><path d="M31.23 0 M31.23 0 C54.05 -1.68, 74.08 0.62, 93.69 0 M31.23 0 C45.42 0.44, 58.4 -0.56, 93.69 0 M93.69 0 C112.73 0.66, 126.66 12.18, 124.93 31.23 M93.69 0 C113.67 -1.84, 127.09 10.64, 124.93 31.23 M124.93 31.23 C125.33 58.11, 122.87 85.44, 124.93 124.49 M124.93 31.23 C124.47 63.64, 125.76 97.32, 124.93 124.49 M124.93 124.49 C123.44 146.94, 115.32 155.81, 93.69 155.72 M124.93 124.49 C124.67 143.66, 115 155.55, 93.69 155.72 M93.69 155.72 C69.99 157.89, 45.64 154.59, 31.23 155.72 M93.69 155.72 C75.98 155.29, 58.68 154.82, 31.23 155.72 M31.23 155.72 C10.37 157.42, 1.79 147.19, 0 124.49 M31.23 155.72 C8.24 154.71, -0.63 144.99, 0 124.49 M0 124.49 C-0.46 91.67, 1.08 57.25, 0 31.23 M0 124.49 C-0.43 104.26, -0.34 84.33, 0 31.23 M0 31.23 C1.66 9.47, 12.1 -1.98, 31.23 0 M0 31.23 C1.17 12.41, 9.65 -1.79, 31.23 0" stroke="#000000" stroke-width="1" fill="none"></path></g><g transform="translate(93.076171875 139.7421875) rotate(0 41.015625 12)"><text x="41.015625" y="0" font-family="Cascadia, Segoe UI Emoji" font-size="20px" fill="#000000" text-anchor="middle" style="white-space: pre;" direction="ltr" dominant-baseline="text-before-edge">lattice</text></g><g stroke-linecap="round" transform="translate(224.19140625 73.69921875) rotate(0 62.462890625 77.859375)"><path d="M7.66 7.98 C7.66 7.98, 7.66 7.98, 7.66 7.98 M7.66 7.98 C7.66 7.98, 7.66 7.98, 7.66 7.98 M7.4 14.38 C8.85 11.15, 11.91 10.51, 17.89 2.3 M7.4 14.38 C11.33 9.35, 14.92 4.56, 17.89 2.3 M2.54 26.06 C12.05 15.74, 19.34 7.65, 24.19 1.15 M2.54 26.06 C10.37 16.53, 18.41 6.25, 24.19 1.15 M2.94 31.7 C9.12 25.3, 14.35 18.75, 29.83 0.76 M2.94 31.7 C10.5 22.05, 19.37 13.14, 29.83 0.76 M2.67 38.1 C10.21 26.46, 20.43 19.49, 33.51 2.63 M2.67 38.1 C9.81 29.99, 16.65 22.52, 33.51 2.63 M2.41 44.5 C10.5 34.19, 23.56 20.65, 39.15 2.23 M2.41 44.5 C13.6 30.87, 26.96 18.03, 39.15 2.23 M2.81 50.14 C11.92 38.01, 26.18 26.7, 44.14 2.59 M2.81 50.14 C19.52 32.38, 34.56 12.52, 44.14 2.59 M2.55 56.54 C18.63 36.48, 37.8 15.72, 49.78 2.2 M2.55 56.54 C14.88 43.11, 25.81 28.3, 49.78 2.2 M2.29 62.94 C18.59 46.84, 33.79 27.33, 54.77 2.56 M2.29 62.94 C18.05 45.58, 34.11 27.06, 54.77 2.56 M2.68 68.58 C26.18 43.69, 44.69 19.04, 60.41 2.17 M2.68 68.58 C23.24 44.21, 43.2 22.45, 60.41 2.17 M2.42 74.98 C18.31 57.65, 33.12 38.81, 65.4 2.53 M2.42 74.98 C23.4 50.88, 44.69 27.08, 65.4 2.53 M2.16 81.38 C26.32 53.17, 48.8 26.05, 70.39 2.89 M2.16 81.38 C25.34 53.72, 49.87 27.22, 70.39 2.89 M2.55 87.02 C20.38 64.92, 41.02 44.2, 76.03 2.49 M2.55 87.02 C19.06 70.82, 33.94 52.64, 76.03 2.49 M2.29 93.42 C25.92 67.49, 46.64 43.2, 81.02 2.85 M2.29 93.42 C19.63 72.07, 38.71 52.46, 81.02 2.85 M2.68 99.06 C21.38 77.91, 39.38 58.68, 86.66 2.46 M2.68 99.06 C21.23 77.82, 39.21 57.19, 86.66 2.46 M2.42 105.46 C20.02 83.89, 40.29 62.29, 91.65 2.82 M2.42 105.46 C24.51 79.48, 46.9 53.94, 91.65 2.82 M2.16 111.86 C38.94 68.57, 76.21 25.11, 97.29 2.42 M2.16 111.86 C25.21 84.42, 49.68 57.9, 97.29 2.42 M2.56 117.5 C32.21 82.49, 61.04 50.48, 102.93 2.03 M2.56 117.5 C38.28 77.52, 72.19 37.48, 102.93 2.03 M0.98 125.41 C24.48 100.15, 43.96 75.6, 107.26 3.14 M0.98 125.41 C33.93 88.66, 66.58 51.2, 107.26 3.14 M2.03 130.29 C35.62 95, 68.71 53.46, 110.94 5.01 M2.03 130.29 C33.27 93.98, 64.02 58.39, 110.94 5.01 M2.43 135.94 C39.62 90.78, 82.07 41.85, 115.27 6.13 M2.43 135.94 C25.26 110.82, 48.16 83.83, 115.27 6.13 M4.13 140.07 C29.58 113.02, 53.15 86.87, 117.63 9.51 M4.13 140.07 C41.55 96.07, 80.29 51.47, 117.63 9.51 M5.84 144.2 C29.42 118.13, 52.7 92.05, 120.65 12.13 M5.84 144.2 C40.11 105.67, 73.94 67.21, 120.65 12.13 M8.2 147.58 C50.53 99.24, 88.87 55.04, 122.36 16.26 M8.2 147.58 C33.37 119.94, 57.55 90.51, 122.36 16.26 M11.22 150.21 C36.49 120.95, 57.06 96.04, 124.72 19.64 M11.22 150.21 C46.23 110.92, 81.33 69.2, 124.72 19.64 M14.24 152.83 C43.74 118.84, 69.04 88.81, 125.77 24.53 M14.24 152.83 C49.63 112.82, 83.15 72.9, 125.77 24.53 M17.92 154.7 C52.15 116.05, 87.43 76.33, 124.85 31.68 M17.92 154.7 C56.48 112.08, 91.69 70.63, 124.85 31.68 M22.25 155.82 C47.34 131.34, 70.38 101.37, 125.25 37.33 M22.25 155.82 C49.6 124.72, 75.71 94.63, 125.25 37.33 M26.58 156.93 C60.11 117, 99.09 75.27, 124.99 43.72 M26.58 156.93 C51.78 128.8, 76.43 99.93, 124.99 43.72 M31.57 157.29 C61.99 119.91, 96.15 81.43, 125.38 49.37 M31.57 157.29 C68.58 116.68, 105.41 73.89, 125.38 49.37 M36.55 157.65 C56.81 133.88, 78.95 110.88, 125.12 55.77 M36.55 157.65 C59.22 132.41, 83.21 105.57, 125.12 55.77 M42.2 157.26 C67.23 125.24, 93.34 96.55, 124.86 62.16 M42.2 157.26 C65.65 130.99, 88.13 105.53, 124.86 62.16 M47.18 157.62 C75.2 126.38, 102.66 92.26, 125.25 67.81 M47.18 157.62 C74.83 124.77, 100.5 94.74, 125.25 67.81 M52.83 157.22 C82.8 124.81, 108.13 91.55, 124.99 74.2 M52.83 157.22 C79.38 126.43, 105.67 94.26, 124.99 74.2 M57.81 157.58 C83.77 126.77, 110.46 97.73, 125.39 79.85 M57.81 157.58 C76.19 135.74, 97.68 111.63, 125.39 79.85 M63.46 157.19 C75.91 144.43, 90.11 127.16, 125.13 86.24 M63.46 157.19 C87.09 130.26, 112.3 101.3, 125.13 86.24 M68.44 157.55 C84.5 139.93, 103.36 118.58, 124.86 92.64 M68.44 157.55 C90.93 132.51, 113.31 106.28, 124.86 92.64 M73.43 157.91 C82.78 143.54, 95.19 132.07, 125.26 98.29 M73.43 157.91 C88.93 140.26, 106.23 121.37, 125.26 98.29 M79.07 157.51 C94.47 140.25, 110.77 124.02, 125 104.68 M79.07 157.51 C95.17 138.41, 111.23 120.47, 125 104.68 M84.06 157.87 C95.01 149.42, 101.1 138.98, 125.39 110.33 M84.06 157.87 C98.56 139.4, 115.3 122.6, 125.39 110.33 M89.7 157.48 C99.3 147.32, 107.16 140.35, 125.13 116.72 M89.7 157.48 C96.58 149.31, 105.39 140.07, 125.13 116.72 M95.35 157.08 C99.84 151.36, 108.68 145.08, 124.87 123.12 M95.35 157.08 C103.69 146.93, 112.07 136.68, 124.87 123.12 M101.65 155.93 C106.94 149.6, 111 145.5, 127.23 126.5 M101.65 155.93 C110.48 145.42, 121.8 133.8, 127.23 126.5 M107.94 154.79 C114.21 146.95, 122.36 137.39, 126.31 133.65 M107.94 154.79 C112.83 149.34, 117.35 145.74, 126.31 133.65" stroke="#ced4da" stroke-width="0.5" fill="none"></path><path d="M31.23 0 M31.23 0 C52.4 0.42, 75.86 -0.65, 93.69 0 M31.23 0 C48.6 0.08, 65.25 -0.47, 93.69 0 M93.69 0 C114.6 0.37, 124.26 11.85, 124.93 31.23 M93.69 0 C115.63 -0.53, 127 9.38, 124.93 31.23 M124.93 31.23 C123.44 65.76, 125.76 103.54, 124.93 124.49 M124.93 31.23 C124.17 62.19, 125.28 92.47, 124.93 124.49 M124.93 124.49 C126.36 145.3, 113.78 155.71, 93.69 155.72 M124.93 124.49 C123.25 146.78, 115.27 156.66, 93.69 155.72 M93.69 155.72 C71.97 155.23, 49.37 155.31, 31.23 155.72 M93.69 155.72 C81.85 156.18, 67.87 154.74, 31.23 155.72 M31.23 155.72 C12.17 155.99, -0.11 143.97, 0 124.49 M31.23 155.72 C8.78 156.02, -0.74 146.41, 0 124.49 M0 124.49 C0.63 91.76, 0.03 63.85, 0 31.23 M0 124.49 C0.47 104.1, 0.85 82.68, 0 31.23 M0 31.23 C-1.02 9.66, 9.08 0.54, 31.23 0 M0 31.23 C2.19 9.01, 12.69 -1, 31.23 0" stroke="#000000" stroke-width="1" fill="none"></path></g><g transform="translate(245.638671875 139.55859375) rotate(0 41.015625 12)"><text x="41.015625" y="0" font-family="Cascadia, Segoe UI Emoji" font-size="20px" fill="#000000" text-anchor="middle" style="white-space: pre;" direction="ltr" dominant-baseline="text-before-edge">Lattice</text></g><g stroke-linecap="round" transform="translate(377.87890625 70.9453125) rotate(0 62.462890625 77.859375)"><path d="M7.66 7.98 C7.66 7.98, 7.66 7.98, 7.66 7.98 M7.66 7.98 C7.66 7.98, 7.66 7.98, 7.66 7.98 M7.4 14.38 C8.93 10.49, 11.52 10.4, 17.89 2.3 M7.4 14.38 C11.66 9.4, 15.06 6.56, 17.89 2.3 M2.54 26.06 C9.13 18.83, 18.78 7.95, 24.19 1.15 M2.54 26.06 C6.67 20.31, 11.2 16.16, 24.19 1.15 M2.94 31.7 C10.43 26.82, 15.59 18.43, 29.83 0.76 M2.94 31.7 C11.32 23.85, 18.62 15.45, 29.83 0.76 M2.67 38.1 C10.32 28.81, 20.08 20.12, 33.51 2.63 M2.67 38.1 C14.81 25.53, 26.06 10.47, 33.51 2.63 M2.41 44.5 C13.79 31.54, 24.44 16.6, 39.15 2.23 M2.41 44.5 C17.22 28.87, 30.79 12.69, 39.15 2.23 M2.81 50.14 C10.19 40.16, 19.45 30.74, 44.14 2.59 M2.81 50.14 C14.15 38.18, 23.68 25.38, 44.14 2.59 M2.55 56.54 C14.75 41.49, 26.68 28.59, 49.78 2.2 M2.55 56.54 C20.41 34.62, 39.27 14.13, 49.78 2.2 M2.29 62.94 C21.76 41.32, 44.69 17.58, 54.77 2.56 M2.29 62.94 C13.25 50.27, 25.1 36.16, 54.77 2.56 M2.68 68.58 C22.72 44.49, 42.54 22.73, 60.41 2.17 M2.68 68.58 C24.16 44.39, 45.55 19.85, 60.41 2.17 M2.42 74.98 C21.56 53.73, 40.16 31.32, 65.4 2.53 M2.42 74.98 C22.2 53.09, 40.58 32.45, 65.4 2.53 M2.16 81.38 C18.61 61.97, 35.95 41.89, 70.39 2.89 M2.16 81.38 C27.78 51.22, 53.42 21.3, 70.39 2.89 M2.55 87.02 C21.65 65.02, 37.72 47.16, 76.03 2.49 M2.55 87.02 C17.85 70.5, 31.6 53.44, 76.03 2.49 M2.29 93.42 C21.12 70.82, 41.35 45.83, 81.02 2.85 M2.29 93.42 C20.6 73.31, 39.16 51.12, 81.02 2.85 M2.68 99.06 C29.72 67.88, 57.5 37.53, 86.66 2.46 M2.68 99.06 C26.95 70.42, 53.83 41.53, 86.66 2.46 M2.42 105.46 C19.61 84.53, 37.46 62.19, 91.65 2.82 M2.42 105.46 C28.09 73.71, 54.72 44.78, 91.65 2.82 M2.16 111.86 C21.22 89.84, 42.02 68.36, 97.29 2.42 M2.16 111.86 C23.83 87.97, 45.77 63.16, 97.29 2.42 M2.56 117.5 C39.61 73.17, 77.59 30.64, 102.93 2.03 M2.56 117.5 C34.77 81.11, 66.9 44.8, 102.93 2.03 M0.98 125.41 C36.31 83.79, 73.16 41.99, 107.26 3.14 M0.98 125.41 C30.14 92.76, 58.63 57.74, 107.26 3.14 M2.03 130.29 C38.79 88.81, 77.23 45.1, 110.94 5.01 M2.03 130.29 C25.95 105.59, 46.65 78.67, 110.94 5.01 M2.43 135.94 C45.54 84.32, 92.25 32.95, 115.27 6.13 M2.43 135.94 C28.7 106.88, 53.47 75.99, 115.27 6.13 M4.13 140.07 C47.67 93.43, 88.11 44.12, 117.63 9.51 M4.13 140.07 C30.71 110.22, 56.65 80.86, 117.63 9.51 M5.84 144.2 C48.39 96.68, 91.12 43.57, 120.65 12.13 M5.84 144.2 C41.45 105.78, 76.97 66.07, 120.65 12.13 M8.2 147.58 C32.01 122.16, 54 94.6, 122.36 16.26 M8.2 147.58 C34.7 115.63, 61.79 86.47, 122.36 16.26 M11.22 150.21 C46.17 110.55, 82.29 69.53, 124.72 19.64 M11.22 150.21 C33.02 122.22, 56.24 96.62, 124.72 19.64 M14.24 152.83 C43.04 118.11, 76.14 83.73, 125.77 24.53 M14.24 152.83 C40.29 122.99, 66.05 94.26, 125.77 24.53 M17.92 154.7 C59.84 105.27, 103.87 59.32, 124.85 31.68 M17.92 154.7 C48.4 118.05, 78.39 82.5, 124.85 31.68 M22.25 155.82 C53.83 121.16, 84.64 84.91, 125.25 37.33 M22.25 155.82 C60.1 111.25, 99.23 66.63, 125.25 37.33 M26.58 156.93 C47.48 135.15, 64.24 108.93, 124.99 43.72 M26.58 156.93 C64.44 113.66, 102.65 67.98, 124.99 43.72 M31.57 157.29 C56.9 127.1, 82.77 96.31, 125.38 49.37 M31.57 157.29 C51.33 134.39, 70.97 111.36, 125.38 49.37 M36.55 157.65 C63.02 124.89, 91 98.17, 125.12 55.77 M36.55 157.65 C55.07 136.88, 74.66 116.63, 125.12 55.77 M42.2 157.26 C63.63 129.77, 88.58 105.44, 124.86 62.16 M42.2 157.26 C62.78 133.09, 84.65 110.22, 124.86 62.16 M47.18 157.62 C65.7 136.86, 85.27 115.58, 125.25 67.81 M47.18 157.62 C70.95 130.47, 92.34 105.23, 125.25 67.81 M52.83 157.22 C73.12 132.88, 95.11 111.93, 124.99 74.2 M52.83 157.22 C77.55 128, 103.3 99.39, 124.99 74.2 M57.81 157.58 C81.89 130.14, 104.72 102.31, 125.39 79.85 M57.81 157.58 C76.05 138.1, 95.57 115.86, 125.39 79.85 M63.46 157.19 C84.79 131.61, 103.41 110.39, 125.13 86.24 M63.46 157.19 C85.39 133.59, 106.25 108.91, 125.13 86.24 M68.44 157.55 C90.47 132.13, 111.95 110.81, 124.86 92.64 M68.44 157.55 C81.64 141.58, 96.36 127.56, 124.86 92.64 M73.43 157.91 C93.37 135.02, 112.18 112.1, 125.26 98.29 M73.43 157.91 C86.89 143.67, 98.42 128.99, 125.26 98.29 M79.07 157.51 C96.41 134.94, 116.07 117.25, 125 104.68 M79.07 157.51 C94.47 138.75, 110.89 120.84, 125 104.68 M84.06 157.87 C92.43 148.1, 102.08 137.59, 125.39 110.33 M84.06 157.87 C100.52 139.12, 116.15 121.18, 125.39 110.33 M89.7 157.48 C99.43 146.41, 110.23 134.21, 125.13 116.72 M89.7 157.48 C97.49 148.77, 106.44 138.46, 125.13 116.72 M95.35 157.08 C107.68 144.15, 116.74 128.54, 124.87 123.12 M95.35 157.08 C104.85 146.51, 114.1 134.68, 124.87 123.12 M101.65 155.93 C110.94 144.62, 119.98 133.52, 127.23 126.5 M101.65 155.93 C111.33 144.51, 120.86 134.37, 127.23 126.5 M107.94 154.79 C110.76 148.61, 117.17 145.69, 126.31 133.65 M107.94 154.79 C115.42 147.63, 120.97 139.37, 126.31 133.65" stroke="#ced4da" stroke-width="0.5" fill="none"></path><path d="M31.23 0 M31.23 0 C46.51 0.8, 58.82 -1.63, 93.69 0 M31.23 0 C50.89 -0.57, 69.05 -0.58, 93.69 0 M93.69 0 C114.39 1.95, 125.55 12.25, 124.93 31.23 M93.69 0 C113.35 -0.86, 123.4 11.03, 124.93 31.23 M124.93 31.23 C123.49 68.05, 124.54 106.17, 124.93 124.49 M124.93 31.23 C125.41 56.46, 125.65 81.11, 124.93 124.49 M124.93 124.49 C123.63 143.81, 116.14 157.1, 93.69 155.72 M124.93 124.49 C123.44 144.74, 113.74 156.47, 93.69 155.72 M93.69 155.72 C82.05 156.15, 66.8 157.3, 31.23 155.72 M93.69 155.72 C76.46 156.7, 59.33 156.07, 31.23 155.72 M31.23 155.72 C8.73 157.41, -0.86 144.65, 0 124.49 M31.23 155.72 C9.33 157.17, 0.85 144.17, 0 124.49 M0 124.49 C-2.21 99.06, 0.7 76.78, 0 31.23 M0 124.49 C0.53 90.88, 0.01 54.98, 0 31.23 M0 31.23 C-0.85 8.93, 11.65 1.64, 31.23 0 M0 31.23 C-0.45 9.84, 12.55 2.07, 31.23 0" stroke="#000000" stroke-width="1" fill="none"></path></g><g transform="translate(399.326171875 136.8046875) rotate(0 41.015625 12)"><text x="41.015625" y="0" font-family="Cascadia, Segoe UI Emoji" font-size="20px" fill="#000000" text-anchor="middle" style="white-space: pre;" direction="ltr" dominant-baseline="text-before-edge">Lattice</text></g><g transform="translate(46.66796875 488.215087890625) rotate(0 35.15625 12)"><text x="0" y="0" font-family="Cascadia, Segoe UI Emoji" font-size="20px" fill="#000000" text-anchor="start" style="white-space: pre;" direction="ltr" dominant-baseline="text-before-edge">Editor</text></g><g transform="translate(548.6484375 139.972412109375) rotate(0 29.296875 12)"><text x="0" y="0" font-family="Cascadia, Segoe UI Emoji" font-size="20px" fill="#000000" text-anchor="start" style="white-space: pre;" direction="ltr" dominant-baseline="text-before-edge">.....</text></g><g stroke-linecap="round" transform="translate(397.03515625 328.961181640625) rotate(0 195.6953125 67.064453125)"><path d="M32 0 M32 0 C137.43 -1.47, 245.25 -1.09, 359.39 0 M32 0 C141.28 -0.04, 252 0.38, 359.39 0 M359.39 0 C382.01 1.64, 390.57 9.48, 391.39 32 M359.39 0 C379.9 0.06, 389.24 8.62, 391.39 32 M391.39 32 C393.46 57.88, 389.86 80.36, 391.39 102.13 M391.39 32 C391.41 53.02, 391.12 75.8, 391.39 102.13 M391.39 102.13 C393.36 122.13, 381.36 133.16, 359.39 134.13 M391.39 102.13 C393.12 123.67, 381.73 134.45, 359.39 134.13 M359.39 134.13 C279.8 134.38, 203.45 134.74, 32 134.13 M359.39 134.13 C245.24 133.15, 131.67 133.34, 32 134.13 M32 134.13 C10.22 135.21, 1.37 122.03, 0 102.13 M32 134.13 C11.97 133.57, -1.66 125.43, 0 102.13 M0 102.13 C1.53 82.06, -1 59.91, 0 32 M0 102.13 C1.38 80.24, 0.84 57.76, 0 32 M0 32 C1.19 10.74, 11.95 0.45, 32 0 M0 32 C-1.49 9.51, 10.9 -0.54, 32 0" stroke="#000000" stroke-width="1" fill="none"></path></g><g stroke-linecap="round"><g transform="translate(413.41015625 221.976806640625) rotate(0 -25.634429689210776 70.5479620436767)"><path d="M0.13 -0.86 C-8.21 11.75, -45.59 51.33, -49.79 75.13 C-53.99 98.94, -28.91 131.14, -25.09 141.96 M-1.26 1.3 C-9.81 13.58, -46.96 50.12, -50.97 73.24 C-54.99 96.36, -29.32 128.81, -25.33 140.02" stroke="#000000" stroke-width="1" fill="none"></path></g><g transform="translate(413.41015625 221.976806640625) rotate(0 -25.634429689210776 70.5479620436767)"><path d="M-49.14 119.29 C-39.93 128.05, -32.25 131.43, -27.25 141.11 M-48.2 119.08 C-40.56 125.83, -32.34 133.78, -25.89 139.38" stroke="#000000" stroke-width="1" fill="none"></path></g><g transform="translate(413.41015625 221.976806640625) rotate(0 -25.634429689210776 70.5479620436767)"><path d="M-31.06 109.58 C-27.65 121.46, -25.72 127.92, -27.25 141.11 M-30.13 109.37 C-28.36 119.19, -26.02 130.28, -25.89 139.38" stroke="#000000" stroke-width="1" fill="none"></path></g></g><mask></mask><g stroke-linecap="round" transform="translate(409.625 374.465087890625) rotate(0 83.802734375 32.92578125)"><path d="M4.38 3.81 C4.38 3.81, 4.38 3.81, 4.38 3.81 M4.38 3.81 C4.38 3.81, 4.38 3.81, 4.38 3.81 M1.5 13.23 C3.25 9.63, 8.77 7.26, 10.68 2.66 M1.5 13.23 C4.83 9.26, 8.63 4.6, 10.68 2.66 M1.23 19.62 C4.01 15.11, 11.34 11.55, 17.64 0.76 M1.23 19.62 C5.81 14.02, 9.98 9.65, 17.64 0.76 M0.97 26.02 C8.03 18.67, 16.24 11.21, 22.62 1.12 M0.97 26.02 C6.4 21.32, 10.65 15.54, 22.62 1.12 M1.37 31.66 C8.14 24.22, 15.24 16.86, 28.27 0.72 M1.37 31.66 C11.24 20.29, 23.33 8.09, 28.27 0.72 M1.11 38.06 C9.48 30.71, 15.64 21.74, 33.25 1.08 M1.11 38.06 C13.74 22.56, 25.99 8.61, 33.25 1.08 M1.5 43.71 C9.8 31.31, 19.17 22.46, 38.9 0.69 M1.5 43.71 C9.49 33.71, 18.58 24.53, 38.9 0.69 M1.24 50.1 C18.84 29.02, 33.18 13.09, 43.88 1.05 M1.24 50.1 C15.92 33.06, 30.37 17.66, 43.88 1.05 M2.29 54.99 C18.83 33.55, 37.72 14.68, 48.87 1.41 M2.29 54.99 C13.55 41.67, 24.29 29.52, 48.87 1.41 M3.34 59.88 C15.22 45.55, 24.72 34.75, 54.51 1.01 M3.34 59.88 C18.94 41.06, 34.59 24.17, 54.51 1.01 M6.36 62.5 C22.69 40.69, 40.35 21.74, 59.5 1.37 M6.36 62.5 C18.14 49.11, 29.8 37.44, 59.5 1.37 M9.38 65.13 C20.61 53.19, 34.58 36.39, 65.14 0.98 M9.38 65.13 C25.91 44.74, 43.61 25.01, 65.14 0.98 M15.02 64.73 C30.59 43.98, 48.51 24.01, 70.13 1.34 M15.02 64.73 C33.9 41.75, 51.97 20.74, 70.13 1.34 M20.01 65.09 C35.23 47.32, 53.33 26.08, 75.12 1.7 M20.01 65.09 C40.68 42.87, 59.25 19.74, 75.12 1.7 M25 65.45 C44.94 42.48, 64.15 18.84, 80.76 1.3 M25 65.45 C46.06 41.6, 67.05 17.34, 80.76 1.3 M30.64 65.06 C49.04 44.41, 64.64 26.01, 85.75 1.66 M30.64 65.06 C42.1 50.69, 55.29 36.9, 85.75 1.66 M35.63 65.42 C49.99 52.51, 61.22 37.64, 91.39 1.27 M35.63 65.42 C53.16 44.88, 69.99 23.74, 91.39 1.27 M41.27 65.02 C61.1 44.6, 79.01 23.16, 96.38 1.63 M41.27 65.02 C56.49 46.18, 74.14 28.06, 96.38 1.63 M46.26 65.39 C62.28 46.37, 76.99 31.16, 102.02 1.23 M46.26 65.39 C59.84 51.15, 71.96 34.97, 102.02 1.23 M51.9 64.99 C67.7 46.12, 84.41 26.61, 107.01 1.59 M51.9 64.99 C69.5 45.66, 86.82 24.96, 107.01 1.59 M56.89 65.35 C77.09 42.8, 99.26 17.43, 112 1.95 M56.89 65.35 C75.62 43.87, 94.21 24.07, 112 1.95 M61.87 65.71 C72.39 51.12, 84.33 37.37, 117.64 1.56 M61.87 65.71 C74.58 51.54, 87.47 36.53, 117.64 1.56 M67.52 65.32 C79.59 49.71, 93.03 33.27, 122.63 1.92 M67.52 65.32 C81.22 49.97, 94.19 34.78, 122.63 1.92 M72.5 65.68 C95.89 40.3, 117.24 18.19, 128.27 1.53 M72.5 65.68 C94.15 41.38, 113.01 17.91, 128.27 1.53 M78.15 65.28 C92.79 49.89, 107.27 30.85, 133.26 1.89 M78.15 65.28 C97.7 44.35, 113.96 24.96, 133.26 1.89 M83.13 65.64 C101.95 47.75, 116.73 28.06, 138.9 1.49 M83.13 65.64 C95.52 50.18, 109.41 34.29, 138.9 1.49 M88.78 65.25 C104.24 48.6, 116.19 32.49, 143.89 1.85 M88.78 65.25 C112.02 40.29, 132.22 14.3, 143.89 1.85 M93.76 65.61 C107.21 51.94, 121.58 35.65, 148.87 2.21 M93.76 65.61 C112.45 44.03, 130.53 24.27, 148.87 2.21 M98.75 65.97 C121.51 42.69, 142.95 17, 154.52 1.82 M98.75 65.97 C118.42 41.1, 138.86 17.94, 154.52 1.82 M104.39 65.57 C116.15 50.97, 127.88 37.71, 159.5 2.18 M104.39 65.57 C122.34 45.73, 140.08 25.76, 159.5 2.18 M109.38 65.93 C121.18 50.99, 134.9 38.5, 163.18 4.05 M109.38 65.93 C122.26 52, 135.26 36.03, 163.18 4.05 M115.02 65.54 C126.39 54.37, 135.52 40.23, 166.2 6.67 M115.02 65.54 C130.22 48.13, 144.09 33, 166.2 6.67 M120.01 65.9 C136.95 44.62, 157.19 22.02, 167.9 10.8 M120.01 65.9 C133.43 51.45, 146.59 34.21, 167.9 10.8 M125.65 65.5 C141.78 45.49, 160.98 27.44, 169.61 14.94 M125.65 65.5 C136.03 53.16, 147.42 41.29, 169.61 14.94 M130.64 65.86 C137.8 56.14, 147.73 46.77, 170 20.58 M130.64 65.86 C141.39 52.64, 153.32 41.29, 170 20.58 M135.63 66.22 C146.83 54.5, 155.11 44.88, 169.74 26.98 M135.63 66.22 C144.47 56.44, 152.82 46.77, 169.74 26.98 M141.27 65.83 C150.62 55.8, 156.7 46.25, 169.48 33.38 M141.27 65.83 C148.66 58.04, 155.17 48.82, 169.48 33.38 M146.26 66.19 C152.45 59.04, 163.46 46.97, 169.22 39.77 M146.26 66.19 C154.29 58.4, 162.23 49.5, 169.22 39.77 M151.24 66.55 C154.86 63.08, 157.64 58.29, 168.96 46.17 M151.24 66.55 C156.79 59.53, 164.58 52.03, 168.96 46.17 M158.2 64.65 C162.61 61.34, 164.06 58.12, 169.35 51.82 M158.2 64.65 C160.46 61.84, 163.25 57.28, 169.35 51.82" stroke="#82c91e" stroke-width="0.5" fill="none"></path><path d="M16.46 0 M16.46 0 C68.07 1.21, 117.96 0.07, 151.14 0 M16.46 0 C45.02 0.77, 72.35 0.59, 151.14 0 M151.14 0 C160.66 1.3, 166.37 6.33, 167.61 16.46 M151.14 0 C162.43 -0.66, 166.6 4.01, 167.61 16.46 M167.61 16.46 C168.86 23.37, 168.2 31.73, 167.61 49.39 M167.61 16.46 C167.06 24.33, 167.11 30.25, 167.61 49.39 M167.61 49.39 C168.48 62, 161.77 65.6, 151.14 65.85 M167.61 49.39 C166.26 61.24, 160.74 63.56, 151.14 65.85 M151.14 65.85 C121.62 66.16, 90.77 66.69, 16.46 65.85 M151.14 65.85 C120.98 64.85, 93.28 65.14, 16.46 65.85 M16.46 65.85 C6.4 65.17, -0.35 58.53, 0 49.39 M16.46 65.85 C6.47 63.74, -0.5 60.28, 0 49.39 M0 49.39 C-0.75 37.76, -0.6 26.44, 0 16.46 M0 49.39 C0.35 40.23, 0.31 28.97, 0 16.46 M0 16.46 C-0.98 5.07, 7.43 -1.04, 16.46 0 M0 16.46 C-1.77 5.49, 6.2 -2.04, 16.46 0" stroke="#000000" stroke-width="1" fill="none"></path></g><g transform="translate(446.552734375 395.390869140625) rotate(0 46.875 12)"><text x="46.875" y="0" font-family="Cascadia, Segoe UI Emoji" font-size="20px" fill="#000000" text-anchor="middle" style="white-space: pre;" direction="ltr" dominant-baseline="text-before-edge">EditText</text></g><g stroke-linecap="round" transform="translate(587.046875 377.715087890625) rotate(0 90.884765625 30.732421875)"><path d="M4.09 3.56 C4.09 3.56, 4.09 3.56, 4.09 3.56 M4.09 3.56 C4.09 3.56, 4.09 3.56, 4.09 3.56 M1.2 12.97 C3.08 11.43, 6.48 8.15, 10.39 2.41 M1.2 12.97 C4.85 9.12, 7.24 6.46, 10.39 2.41 M1.6 18.62 C6.53 12.6, 8.41 11.21, 16.69 1.26 M1.6 18.62 C4.44 15.25, 8.97 11.86, 16.69 1.26 M1.34 25.01 C9.37 14.38, 16.52 9.54, 22.33 0.86 M1.34 25.01 C7.23 17.6, 12.74 12.44, 22.33 0.86 M1.08 31.41 C9.93 20.41, 22.77 7.29, 27.32 1.22 M1.08 31.41 C8.33 23.1, 15.8 14.39, 27.32 1.22 M1.47 37.05 C12.73 24.65, 19.84 17.85, 32.31 1.58 M1.47 37.05 C10.65 25.82, 21.31 15.33, 32.31 1.58 M1.21 43.45 C16.17 24.9, 30.78 10.21, 37.95 1.19 M1.21 43.45 C9.75 34.75, 16.4 25.99, 37.95 1.19 M0.95 49.85 C18.5 31.63, 34.67 10.88, 42.94 1.55 M0.95 49.85 C8.87 40.32, 17.59 30.51, 42.94 1.55 M2.65 53.98 C13.64 42.47, 25.79 30.97, 48.58 1.15 M2.65 53.98 C18.96 32.9, 37.97 13.04, 48.58 1.15 M4.36 58.12 C14.53 42.7, 28.15 29.82, 53.57 1.51 M4.36 58.12 C22.73 36.11, 43.18 14.5, 53.57 1.51 M8.04 59.99 C27.35 36.53, 48.15 16.88, 59.21 1.12 M8.04 59.99 C19.14 47.44, 29.07 34.76, 59.21 1.12 M11.06 62.61 C27.33 43.57, 42.4 24.2, 64.2 1.48 M11.06 62.61 C33.07 39.68, 53.43 15.18, 64.2 1.48 M16.04 62.97 C30.95 44.8, 46.79 24.66, 69.18 1.84 M16.04 62.97 C29.32 46.05, 45.18 28.96, 69.18 1.84 M21.69 62.58 C38.01 42.78, 54.15 23.42, 74.83 1.44 M21.69 62.58 C31.63 50.36, 42.32 38.69, 74.83 1.44 M26.67 62.94 C38.64 45.97, 53.43 32.17, 79.81 1.8 M26.67 62.94 C45.6 40.12, 63.65 20.15, 79.81 1.8 M32.32 62.54 C44.79 46.19, 56.86 32.56, 85.46 1.41 M32.32 62.54 C50.52 43.72, 66.76 22.41, 85.46 1.41 M37.3 62.9 C58.22 39.14, 78.98 16.24, 90.44 1.77 M37.3 62.9 C57.35 38.63, 78.72 13.46, 90.44 1.77 M42.95 62.51 C63.59 41.25, 80.83 17.14, 96.09 1.38 M42.95 62.51 C59.48 42.28, 78.13 23.37, 96.09 1.38 M47.93 62.87 C63.31 44.04, 79.63 24.01, 101.07 1.74 M47.93 62.87 C68.3 40.36, 86.77 20.24, 101.07 1.74 M52.92 63.23 C69.82 42.58, 89.48 20.55, 106.06 2.1 M52.92 63.23 C65.94 47.82, 80.24 31.26, 106.06 2.1 M58.56 62.83 C74.11 42.69, 92.91 24.1, 111.7 1.7 M58.56 62.83 C77.53 40.07, 96.34 19.56, 111.7 1.7 M63.55 63.19 C76.45 48.6, 91.88 31.69, 116.69 2.06 M63.55 63.19 C78.58 44.42, 93.64 27.93, 116.69 2.06 M69.19 62.8 C84.17 44.5, 100.56 25.05, 122.33 1.67 M69.19 62.8 C86.41 44.43, 101.76 26.58, 122.33 1.67 M74.18 63.16 C87.91 45.24, 104.68 28.79, 127.32 2.03 M74.18 63.16 C85.39 49.85, 96.4 37.17, 127.32 2.03 M79.82 62.76 C100.23 41.85, 116.32 18.28, 132.96 1.63 M79.82 62.76 C93.29 45.98, 109.2 28.03, 132.96 1.63 M84.81 63.12 C102.87 41.76, 123.01 19.81, 137.95 1.99 M84.81 63.12 C104.44 41.25, 123.41 19.57, 137.95 1.99 M90.45 62.73 C103.72 44.41, 118.21 28.8, 143.59 1.6 M90.45 62.73 C111.47 38.79, 131.89 16.17, 143.59 1.6 M95.44 63.09 C109.07 45.92, 121.94 29.44, 148.58 1.96 M95.44 63.09 C112.25 43.5, 129.01 24.18, 148.58 1.96 M100.43 63.45 C114.06 47.22, 127.62 34.63, 153.57 2.32 M100.43 63.45 C115.03 47.57, 128.8 32.27, 153.57 2.32 M106.07 63.05 C119.26 47.59, 132.25 30.01, 159.21 1.92 M106.07 63.05 C126.53 39.61, 146.06 17.38, 159.21 1.92 M111.06 63.41 C124.55 48.35, 137.36 33.19, 164.2 2.28 M111.06 63.41 C130.67 40.99, 150.17 18.64, 164.2 2.28 M116.7 63.02 C128.05 47.62, 142.86 35.28, 169.84 1.89 M116.7 63.02 C132.5 46, 146.55 27.45, 169.84 1.89 M121.69 63.38 C142.48 42.01, 161.1 17.88, 174.83 2.25 M121.69 63.38 C139.78 44.59, 156.59 23.3, 174.83 2.25 M127.33 62.99 C146.09 39.95, 166.06 18.73, 178.5 4.12 M127.33 62.99 C143.34 45.08, 158.58 26.73, 178.5 4.12 M132.32 63.35 C147.49 45.09, 162.07 27.2, 180.21 8.25 M132.32 63.35 C149.96 42.77, 169 22.66, 180.21 8.25 M137.3 63.71 C154.35 47.32, 170.07 25.31, 181.92 12.39 M137.3 63.71 C152.73 44.92, 168.31 28.27, 181.92 12.39 M142.95 63.31 C158.09 49.87, 168.15 32.57, 181.65 18.78 M142.95 63.31 C153.84 49.93, 165.9 37.32, 181.65 18.78 M147.93 63.67 C158.16 55.01, 165.01 44.82, 182.05 24.43 M147.93 63.67 C157.11 53.64, 165.01 43.26, 182.05 24.43 M153.58 63.28 C160.44 53.5, 169.04 47.05, 181.79 30.82 M153.58 63.28 C159.96 54.89, 167.49 45.7, 181.79 30.82 M158.56 63.64 C164.9 57.51, 169.02 50.31, 181.53 37.22 M158.56 63.64 C166.14 54.89, 174.23 46.29, 181.53 37.22 M164.21 63.24 C166.72 58.06, 171.67 55.45, 181.26 43.62 M164.21 63.24 C168.9 58.58, 173.03 53.12, 181.26 43.62 M169.19 63.6 C172.3 59.21, 178.25 50.7, 181.66 49.26 M169.19 63.6 C173.26 58.69, 178.31 54.28, 181.66 49.26" stroke="#4c6ef5" stroke-width="0.5" fill="none"></path><path d="M15.37 0 M15.37 0 C57.18 -0.52, 94.35 -0.86, 166.4 0 M15.37 0 C52.01 0.29, 90.65 0.69, 166.4 0 M166.4 0 C178.25 1.42, 181.31 3.34, 181.77 15.37 M166.4 0 C178.72 -0.4, 183.75 6.94, 181.77 15.37 M181.77 15.37 C180.25 25.61, 181.48 32.64, 181.77 46.1 M181.77 15.37 C181.63 22.49, 181.93 31.08, 181.77 46.1 M181.77 46.1 C183.01 55.99, 177.05 59.93, 166.4 61.46 M181.77 46.1 C181.31 57.5, 178.76 60.81, 166.4 61.46 M166.4 61.46 C115.21 62.32, 67.09 62.84, 15.37 61.46 M166.4 61.46 C130.1 61.75, 91.99 61.55, 15.37 61.46 M15.37 61.46 C4.03 63.46, -1.26 55.26, 0 46.1 M15.37 61.46 C5.56 61.37, -1.31 57.56, 0 46.1 M0 46.1 C1.34 37.88, -0.62 29.1, 0 15.37 M0 46.1 C-0.06 36.45, 0.65 25.52, 0 15.37 M0 15.37 C1.17 5.98, 3.41 1.2, 15.37 0 M0 15.37 C-0.95 4.12, 6.55 -2.06, 15.37 0" stroke="#000000" stroke-width="1" fill="none"></path></g><g transform="translate(648.634765625 396.447509765625) rotate(0 29.296875 12)"><text x="29.296875" y="0" font-family="Cascadia, Segoe UI Emoji" font-size="20px" fill="#000000" text-anchor="middle" style="white-space: pre;" direction="ltr" dominant-baseline="text-before-edge">Frame</text></g><g transform="translate(475.3203125 290.836181640625) rotate(0 111.328125 12)"><text x="0" y="0" font-family="Cascadia, Segoe UI Emoji" font-size="20px" fill="#000000" text-anchor="start" style="white-space: pre;" direction="ltr" dominant-baseline="text-before-edge">Lattice: type = tzg</text></g><g transform="translate(437.953125 344.490087890625) rotate(0 46.875 9.600000000000023)"><text x="0" y="0" font-family="Cascadia, Segoe UI Emoji" font-size="16px" fill="#087f5b" text-anchor="start" style="white-space: pre;" direction="ltr" dominant-baseline="text-before-edge">type:Hanzi</text></g><g transform="translate(626.515625 349.492431640625) rotate(0 42.1875 9.600000000000023)"><text x="0" y="0" font-family="Cascadia, Segoe UI Emoji" font-size="16px" fill="#1864ab" text-anchor="start" style="white-space: pre;" direction="ltr" dominant-baseline="text-before-edge">type: tzg</text></g><g stroke-linecap="round"><g transform="translate(417.71875 380.840087890625) rotate(0 -72.02706521420271 13.544702479581417)"><path d="M-0.35 -0.26 C-11.15 3.76, -40.92 21.16, -65.15 25.18 C-89.38 29.2, -132.64 23.98, -145.72 23.86 M1.66 -1.44 C-9.23 3.31, -41.78 22.34, -65.96 26.77 C-90.14 31.2, -130.6 25.93, -143.41 25.17" stroke="#087f5b" stroke-width="1" fill="none"></path></g><g transform="translate(417.71875 380.840087890625) rotate(0 -72.02706521420271 13.544702479581417)"><path d="M-114.88 17.79 C-121.99 17.49, -129.97 23.14, -142.43 23.72 M-113.91 17.06 C-124.08 19.88, -131.22 22.36, -143.83 25.36" stroke="#087f5b" stroke-width="1" fill="none"></path></g><g transform="translate(417.71875 380.840087890625) rotate(0 -72.02706521420271 13.544702479581417)"><path d="M-116.62 38.24 C-123.45 32.44, -130.96 32.59, -142.43 23.72 M-115.65 37.51 C-125.2 34.11, -131.81 30.37, -143.83 25.36" stroke="#087f5b" stroke-width="1" fill="none"></path></g></g><mask></mask><g stroke-linecap="round"><g transform="translate(763.18359375 387.156494140625) rotate(0 43.4349483786641 -10.524683796614397)"><path d="M1.2 0.48 C10.67 -0.32, 42.85 -1.7, 57.06 -5.37 C71.28 -9.03, 81.65 -18.8, 86.5 -21.53 M0.37 -0.32 C9.65 -0.96, 41.89 -1.12, 56.08 -4.45 C70.27 -7.77, 80.51 -17.55, 85.5 -20.27" stroke="#364fc7" stroke-width="1" fill="none"></path></g><g transform="translate(763.18359375 387.156494140625) rotate(0 43.4349483786641 -10.524683796614397)"><path d="M76.11 -6.4 C77.05 -11.55, 81.82 -16.52, 85.07 -20.56 M74.7 -6.93 C78.82 -9.75, 80.81 -14.25, 85.99 -20.87" stroke="#364fc7" stroke-width="1" fill="none"></path></g><g transform="translate(763.18359375 387.156494140625) rotate(0 43.4349483786641 -10.524683796614397)"><path d="M69.49 -16.15 C72.52 -18.22, 79.41 -20.06, 85.07 -20.56 M68.08 -16.67 C74.01 -16.8, 77.82 -18.62, 85.99 -20.87" stroke="#364fc7" stroke-width="1" fill="none"></path></g></g><mask></mask><g transform="translate(803.80859375 260.554931640625) rotate(0 152.34375 48)"><text x="0" y="0" font-family="Cascadia, Segoe UI Emoji" font-size="20px" fill="#364fc7" text-anchor="start" style="white-space: pre;" direction="ltr" dominant-baseline="text-before-edge">&lt;svg class="frame-tzg"&gt;</text><text x="0" y="24" font-family="Cascadia, Segoe UI Emoji" font-size="20px" fill="#364fc7" text-anchor="start" style="white-space: pre;" direction="ltr" dominant-baseline="text-before-edge">  &lt;use href="#tzg"&gt;&lt;/use&gt;</text><text x="0" y="48" font-family="Cascadia, Segoe UI Emoji" font-size="20px" fill="#364fc7" text-anchor="start" style="white-space: pre;" direction="ltr" dominant-baseline="text-before-edge">  (EditText foreignObject)</text><text x="0" y="72" font-family="Cascadia, Segoe UI Emoji" font-size="20px" fill="#364fc7" text-anchor="start" style="white-space: pre;" direction="ltr" dominant-baseline="text-before-edge">&lt;/svg&gt;</text></g><g transform="translate(19.84765625 307.758056640625) rotate(0 158.203125 60)"><text x="0" y="0" font-family="Cascadia, Segoe UI Emoji" font-size="20px" fill="#2b8a3e" text-anchor="start" style="white-space: pre;" direction="ltr" dominant-baseline="text-before-edge">&lt;foreignObject&gt;</text><text x="0" y="24" font-family="Cascadia, Segoe UI Emoji" font-size="20px" fill="#2b8a3e" text-anchor="start" style="white-space: pre;" direction="ltr" dominant-baseline="text-before-edge">  &lt;div contenteditable ...&gt;</text><text x="0" y="48" font-family="Cascadia, Segoe UI Emoji" font-size="20px" fill="#2b8a3e" text-anchor="start" style="white-space: pre;" direction="ltr" dominant-baseline="text-before-edge">    ....</text><text x="0" y="72" font-family="Cascadia, Segoe UI Emoji" font-size="20px" fill="#2b8a3e" text-anchor="start" style="white-space: pre;" direction="ltr" dominant-baseline="text-before-edge">  &lt;/div&gt;</text><text x="0" y="96" font-family="Cascadia, Segoe UI Emoji" font-size="20px" fill="#2b8a3e" text-anchor="start" style="white-space: pre;" direction="ltr" dominant-baseline="text-before-edge">&lt;/foreignObject&gt;</text></g></svg>