<svg version="1.1" xmlns="http://www.w3.org/2000/svg" viewBox="0 0 1149.80078125 705.47265625" width="2299.6015625" height="1410.9453125">
  <!-- svg-source:excalidraw -->
  
  <defs>
    <style class="style-fonts">
      @font-face {
        font-family: "Virgil";
        src: url("https://excalidraw.com/Virgil.woff2");
      }
      @font-face {
        font-family: "Cascadia";
        src: url("https://excalidraw.com/Cascadia.woff2");
      }
    </style>
  </defs>
  <rect x="0" y="0" width="1149.80078125" height="705.47265625" fill="#ffffff"></rect><g stroke-linecap="round" transform="translate(668.8515625 36.1669921875) rotate(0 168.220703125 40.765625)"><path d="M4.77 5.47 C4.77 5.47, 4.77 5.47, 4.77 5.47 M4.77 5.47 C4.77 5.47, 4.77 5.47, 4.77 5.47 M3.2 13.38 C7.9 8.15, 9.7 5.53, 13.04 2.06 M3.2 13.38 C5.67 11.28, 7.56 7.26, 13.04 2.06 M1.62 21.29 C5.11 15.96, 9.36 11.43, 18.68 1.66 M1.62 21.29 C7.43 14.34, 14.09 8.99, 18.68 1.66 M1.36 27.68 C7.56 21.42, 15.11 10.01, 23.01 2.78 M1.36 27.68 C5.97 23.39, 10.94 18.23, 23.01 2.78 M1.1 34.08 C5.29 25.98, 13.71 19.18, 28.65 2.38 M1.1 34.08 C11.73 22.75, 21.68 12, 28.65 2.38 M1.49 39.72 C14.58 27.31, 24.86 10.72, 33.64 2.74 M1.49 39.72 C11.85 27.31, 21.65 15.43, 33.64 2.74 M1.23 46.12 C16.06 32.47, 26.45 18.51, 39.28 2.35 M1.23 46.12 C10.48 33.58, 22.34 22.11, 39.28 2.35 M1.63 51.76 C16.12 32.04, 33.18 16.91, 44.27 2.71 M1.63 51.76 C14.61 36.06, 26.76 21.66, 44.27 2.71 M1.37 58.16 C19.67 34.52, 39.01 13.81, 49.91 2.31 M1.37 58.16 C16.07 40.11, 32.35 22.52, 49.91 2.31 M2.42 63.05 C15.77 44.48, 29.27 30.15, 54.9 2.67 M2.42 63.05 C23.43 39.07, 44.55 15.25, 54.9 2.67 M1.5 70.2 C18.8 52.96, 34.3 32.75, 60.54 2.28 M1.5 70.2 C20.78 47.69, 39.4 25.24, 60.54 2.28 M3.86 73.58 C19.07 55.41, 35.36 37.07, 65.53 2.64 M3.86 73.58 C17.37 57.4, 30.44 42.93, 65.53 2.64 M6.22 76.96 C21.24 57.56, 38.2 39.23, 71.17 2.25 M6.22 76.96 C32.11 48.99, 55.97 20.65, 71.17 2.25 M9.24 79.59 C24.82 62.83, 39.16 45.47, 76.16 2.61 M9.24 79.59 C32.73 54.32, 56 29.19, 76.16 2.61 M13.57 80.7 C39.22 52.08, 63.21 21.11, 81.8 2.21 M13.57 80.7 C34.89 55.22, 58.16 29.23, 81.8 2.21 M17.25 82.57 C33.44 62.83, 50.37 46.91, 86.79 2.57 M17.25 82.57 C40.44 58.17, 61.22 32.32, 86.79 2.57 M22.24 82.93 C44.24 56.09, 68.46 27.45, 91.78 2.93 M22.24 82.93 C41.18 60.16, 60.48 38.32, 91.78 2.93 M27.88 82.54 C48.88 57.62, 71.19 30.97, 97.42 2.54 M27.88 82.54 C42.61 63.62, 58.36 45.24, 97.42 2.54 M32.87 82.9 C48.9 62.12, 67.8 42.01, 102.41 2.9 M32.87 82.9 C53.63 58.23, 75 33.19, 102.41 2.9 M38.51 82.5 C58.23 61.08, 77.01 38.84, 108.05 2.5 M38.51 82.5 C63.69 52.53, 91.24 20.33, 108.05 2.5 M43.5 82.86 C72.72 50.26, 101.02 19.31, 113.04 2.86 M43.5 82.86 C67.53 54.66, 93.45 26.31, 113.04 2.86 M49.14 82.47 C66.4 60.17, 85.09 41.5, 118.68 2.47 M49.14 82.47 C77.26 52.06, 102.72 20.7, 118.68 2.47 M54.13 82.83 C79.26 56.65, 103.08 26.6, 123.67 2.83 M54.13 82.83 C78.23 55.62, 101.18 27.96, 123.67 2.83 M59.77 82.43 C85.65 51.12, 111.83 19.37, 129.31 2.43 M59.77 82.43 C77.02 61.5, 95.06 39.92, 129.31 2.43 M64.76 82.79 C89.78 54.91, 114.55 24.75, 134.3 2.79 M64.76 82.79 C79.55 65.11, 94.99 48.62, 134.3 2.79 M70.4 82.4 C89.96 57.4, 112.34 32.21, 139.94 2.4 M70.4 82.4 C93.24 55.61, 117.44 27.45, 139.94 2.4 M75.39 82.76 C92.44 61.64, 112.4 41.7, 144.93 2.76 M75.39 82.76 C98.48 57.23, 120.63 31.28, 144.93 2.76 M81.03 82.36 C101.61 56.99, 123.47 34.43, 150.57 2.36 M81.03 82.36 C107.16 52.52, 133.77 20.45, 150.57 2.36 M86.02 82.72 C107.95 53.69, 132.17 25.8, 155.56 2.72 M86.02 82.72 C103.23 62.33, 122.4 41.51, 155.56 2.72 M91.66 82.33 C113.71 54.09, 135.85 30.78, 161.2 2.33 M91.66 82.33 C109.88 61.06, 128.23 39.19, 161.2 2.33 M96.65 82.69 C110.79 65.67, 126.78 51.27, 166.19 2.69 M96.65 82.69 C122.16 52.44, 146.42 22.97, 166.19 2.69 M101.63 83.05 C127.1 52.9, 151.82 21.86, 171.83 2.29 M101.63 83.05 C119.71 62.91, 137.69 42.97, 171.83 2.29 M107.28 82.65 C132.66 49.49, 160.19 21.75, 176.82 2.65 M107.28 82.65 C127.68 59.82, 148.15 35.9, 176.82 2.65 M112.26 83.01 C134.01 58.88, 156.95 34.74, 181.81 3.02 M112.26 83.01 C135.1 57.41, 159.12 29.86, 181.81 3.02 M117.91 82.62 C140.8 58.98, 163.67 30.94, 187.45 2.62 M117.91 82.62 C133.67 66.25, 148.24 48.45, 187.45 2.62 M122.89 82.98 C139.37 60.2, 156.63 41.7, 192.44 2.98 M122.89 82.98 C147.96 55.31, 171.48 28.61, 192.44 2.98 M128.54 82.59 C151.65 54.69, 175.54 27.36, 198.08 2.59 M128.54 82.59 C156.05 49.15, 184.36 18.77, 198.08 2.59 M133.52 82.95 C150.17 62.41, 166.15 41.61, 203.07 2.95 M133.52 82.95 C158.3 51.32, 185.54 21.03, 203.07 2.95 M139.17 82.55 C161.32 54.88, 187.29 29.42, 208.71 2.55 M139.17 82.55 C156.45 62.2, 174.25 41.67, 208.71 2.55 M144.15 82.91 C162.59 61.08, 182 39.22, 213.7 2.91 M144.15 82.91 C169.92 51.6, 197.59 20.6, 213.7 2.91 M149.8 82.52 C167.5 59.34, 186.19 41.1, 219.34 2.52 M149.8 82.52 C168.53 61.35, 186.15 42.59, 219.34 2.52 M154.78 82.88 C175.19 56.64, 195.83 32.25, 224.33 2.88 M154.78 82.88 C170.16 65.34, 185.97 46.17, 224.33 2.88 M160.43 82.48 C186.37 53.58, 215.13 20.29, 229.97 2.48 M160.43 82.48 C179.12 62.06, 195.78 40.84, 229.97 2.48 M165.41 82.84 C184.22 62.59, 204.79 39.63, 234.96 2.84 M165.41 82.84 C189.99 56.32, 211.85 29.59, 234.96 2.84 M171.06 82.45 C192.85 57.98, 214.34 31.86, 240.6 2.45 M171.06 82.45 C196.25 54.17, 220.91 24.52, 240.6 2.45 M176.04 82.81 C193.46 65.08, 208.21 45.07, 245.59 2.81 M176.04 82.81 C200.27 56.56, 223.21 29.3, 245.59 2.81 M181.69 82.41 C204.21 57.11, 227.29 32.99, 251.23 2.41 M181.69 82.41 C199.86 62.28, 217.41 42.83, 251.23 2.41 M186.67 82.77 C206 60.96, 224.54 43.06, 256.22 2.77 M186.67 82.77 C212.31 53.3, 237.65 23.34, 256.22 2.77 M191.66 83.13 C209.03 63.16, 229.48 40.41, 261.86 2.38 M191.66 83.13 C208.8 61.96, 226.88 42.14, 261.86 2.38 M197.3 82.74 C218.49 58.3, 242.6 31.51, 266.85 2.74 M197.3 82.74 C224.24 52.16, 252.23 20.51, 266.85 2.74 M202.29 83.1 C216.53 63, 233.45 46.44, 271.83 3.1 M202.29 83.1 C222.32 60.78, 240.88 37.96, 271.83 3.1 M207.93 82.7 C224.22 62.3, 241.66 41.51, 277.48 2.7 M207.93 82.7 C229.3 59.83, 248.59 37.05, 277.48 2.7 M212.92 83.06 C232.22 61.05, 249.35 39.89, 282.46 3.06 M212.92 83.06 C232.77 60.45, 252.02 37.18, 282.46 3.06 M218.56 82.67 C241.38 56.36, 260.45 34.52, 288.11 2.67 M218.56 82.67 C240.5 56.77, 262.45 33.36, 288.11 2.67 M223.55 83.03 C245.87 56.53, 268.28 33.3, 293.09 3.03 M223.55 83.03 C239.45 65.43, 253.14 48.55, 293.09 3.03 M229.19 82.63 C245.76 66.2, 261.34 46.45, 298.74 2.64 M229.19 82.63 C250.51 58.5, 272.91 33.26, 298.74 2.64 M234.18 82.99 C251.09 63.35, 269.58 41.81, 303.72 3 M234.18 82.99 C251.78 63.78, 268.28 44.63, 303.72 3 M239.82 82.6 C254.04 65.16, 270.11 48.92, 309.37 2.6 M239.82 82.6 C256.26 63.71, 273.73 44.1, 309.37 2.6 M244.81 82.96 C259.21 65.18, 275.47 46.45, 314.35 2.96 M244.81 82.96 C268.59 56.29, 292.99 27.07, 314.35 2.96 M250.45 82.57 C275.99 53.6, 295.91 28.22, 321.31 1.06 M250.45 82.57 C270.49 58.93, 290.22 35.04, 321.31 1.06 M255.44 82.93 C276.39 57.92, 299.32 32.6, 324.98 2.93 M255.44 82.93 C277.71 55.56, 300.82 29.71, 324.98 2.93 M261.09 82.53 C282.85 59.37, 302.12 32.71, 329.32 4.04 M261.09 82.53 C284.79 56.28, 307.25 29.44, 329.32 4.04 M266.07 82.89 C285.55 58.65, 309.81 35.92, 332.99 5.91 M266.07 82.89 C291.85 52.73, 319.03 20.5, 332.99 5.91 M271.06 83.25 C289.25 59.81, 309.56 37.57, 334.7 10.04 M271.06 83.25 C289.88 62.07, 308.55 40.6, 334.7 10.04 M276.7 82.86 C298.25 59.01, 316.65 38.4, 337.06 13.42 M276.7 82.86 C301.29 55.41, 324.19 29.49, 337.06 13.42 M281.69 83.22 C302.39 58.65, 326.27 34.88, 338.11 18.31 M281.69 83.22 C304.42 58.31, 325.93 34.43, 338.11 18.31 M287.33 82.82 C304.84 63.48, 322.58 41.98, 339.16 23.2 M287.33 82.82 C304.01 64.85, 318.9 46.02, 339.16 23.2 M292.32 83.18 C302.28 68.98, 315.44 58.95, 339.56 28.84 M292.32 83.18 C303.41 70.86, 315.85 57.54, 339.56 28.84 M297.96 82.79 C312.52 64.99, 324.28 52.24, 339.29 35.24 M297.96 82.79 C308.13 71.13, 318.66 59.12, 339.29 35.24 M302.95 83.15 C310.72 72.34, 319.67 61.04, 339.03 41.64 M302.95 83.15 C317.17 66.69, 332.19 50.36, 339.03 41.64 M308.59 82.75 C316.85 71.98, 326.59 61.76, 339.43 47.28 M308.59 82.75 C316.04 74.12, 324.02 65.35, 339.43 47.28 M313.58 83.11 C318.54 75.51, 322.96 69.92, 339.17 53.68 M313.58 83.11 C319.09 76.05, 325.8 68.63, 339.17 53.68 M318.57 83.47 C324.14 76.2, 334.4 68.74, 338.9 60.08 M318.57 83.47 C322.23 79.06, 326.87 74.29, 338.9 60.08 M326.18 80.81 C329.64 78.2, 332.67 75.23, 337.99 67.23 M326.18 80.81 C329.71 78.36, 331.35 74.48, 337.99 67.23" stroke="#fab005" stroke-width="0.5" fill="none"></path><path d="M20.38 0 M20.38 0 C132.95 0.74, 246.64 0.27, 316.06 0 M20.38 0 C82 -0.68, 143.79 -0.85, 316.06 0 M316.06 0 C329.39 0.73, 336.22 7.94, 336.44 20.38 M316.06 0 C330.24 1.17, 336.6 5.42, 336.44 20.38 M336.44 20.38 C337.43 33.42, 337.4 51.01, 336.44 61.15 M336.44 20.38 C336.02 30.02, 336.7 42.3, 336.44 61.15 M336.44 61.15 C337.55 73.28, 328.28 82.6, 316.06 81.53 M336.44 61.15 C337.23 75.57, 330.77 79.36, 316.06 81.53 M316.06 81.53 C216.66 82.2, 117.06 80.8, 20.38 81.53 M316.06 81.53 C212.51 81.39, 108.44 81.99, 20.38 81.53 M20.38 81.53 C5.87 83.16, 0.06 73.74, 0 61.15 M20.38 81.53 C8.52 79.58, 1.94 72.68, 0 61.15 M0 61.15 C1.36 49.35, 0.94 37.56, 0 20.38 M0 61.15 C-0.85 50.67, -1 42.13, 0 20.38 M0 20.38 C-0.24 6.54, 6.43 1.64, 20.38 0 M0 20.38 C1.91 5.33, 6.55 1.92, 20.38 0" stroke="#000000" stroke-width="1" fill="none"></path></g><g transform="translate(776.134765625 67.33261718750009) rotate(0 60.9375 9.599999999999909)"><text x="60.9375" y="0" font-family="Cascadia, Segoe UI Emoji" font-size="16px" fill="#000000" text-anchor="middle" style="white-space: pre;" direction="ltr" dominant-baseline="text-before-edge">div.mark-tone</text></g><g stroke-linecap="round" transform="translate(10 10) rotate(0 564.900390625 342.736328125)"><path d="M32 0 M32 0 C403.56 0.41, 775.73 -0.98, 1097.8 0 M32 0 C354.78 2.67, 677.06 2.7, 1097.8 0 M1097.8 0 C1120.17 1.92, 1129.31 12.57, 1129.8 32 M1097.8 0 C1118.61 -1.03, 1128.49 10.49, 1129.8 32 M1129.8 32 C1129.45 178.94, 1128.81 326.63, 1129.8 653.47 M1129.8 32 C1127.67 204.27, 1127.57 376.43, 1129.8 653.47 M1129.8 653.47 C1128.85 674.09, 1117.79 685.9, 1097.8 685.47 M1129.8 653.47 C1131.14 674.91, 1118.65 684.29, 1097.8 685.47 M1097.8 685.47 C691.12 688.86, 283.36 689.09, 32 685.47 M1097.8 685.47 C828.12 683.42, 558.05 683.3, 32 685.47 M32 685.47 C10.22 685.23, 1.11 675.15, 0 653.47 M32 685.47 C10.97 683.89, -1.93 676.66, 0 653.47 M0 653.47 C0.94 449.76, 1.18 244.26, 0 32 M0 653.47 C1.61 440.89, 1.68 227.95, 0 32 M0 32 C0.62 11.95, 10.81 -1.21, 32 0 M0 32 C-1.19 11.08, 12.75 1.43, 32 0" stroke="#2b8a3e" stroke-width="1" fill="none"></path></g><g transform="translate(34.546875 660.47265625) rotate(0 134.765625 12)"><text x="0" y="0" font-family="Cascadia, Segoe UI Emoji" font-size="20px" fill="#2b8a3e" text-anchor="start" style="white-space: pre;" direction="ltr" dominant-baseline="text-before-edge">EditText: type="PinYin"</text></g><g stroke-linecap="round" transform="translate(192.890625 90.9140625) rotate(0 154.447265625 31.78125)"><path d="M4.23 3.68 C4.23 3.68, 4.23 3.68, 4.23 3.68 M4.23 3.68 C4.23 3.68, 4.23 3.68, 4.23 3.68 M3.31 10.83 C5.31 8.5, 7.06 6.3, 10.53 2.53 M3.31 10.83 C6.39 7.26, 8.65 4.3, 10.53 2.53 M2.39 17.98 C5.18 14.07, 10.2 8.58, 16.83 1.38 M2.39 17.98 C6.35 11.94, 11.17 6.96, 16.83 1.38 M2.79 23.62 C9.09 18.74, 15.65 11.44, 22.47 0.98 M2.79 23.62 C8 17.72, 13.81 9.82, 22.47 0.98 M2.53 30.02 C10.79 22.16, 17.85 13.65, 27.46 1.34 M2.53 30.02 C8.59 22.92, 12.66 16.45, 27.46 1.34 M2.92 35.67 C12.68 23.25, 23.38 12.89, 33.1 0.95 M2.92 35.67 C13.6 24.7, 23.47 11.33, 33.1 0.95 M3.32 41.31 C15.96 26.81, 27.95 9.87, 38.09 1.31 M3.32 41.31 C16.39 25.04, 30.48 9.68, 38.09 1.31 M3.06 47.71 C14.79 32.08, 28.61 18.8, 43.73 0.91 M3.06 47.71 C12.16 37.89, 19.48 27.54, 43.73 0.91 M1.48 55.61 C15.46 41.74, 29 24.52, 48.72 1.27 M1.48 55.61 C11.08 44.58, 23.02 31.85, 48.72 1.27 M4.5 58.24 C22.12 38.46, 40.48 17.26, 54.36 0.88 M4.5 58.24 C24.7 35.96, 42.71 13.79, 54.36 0.88 M6.86 61.62 C21.23 43.15, 39.98 23.31, 59.35 1.24 M6.86 61.62 C17.95 48.58, 29.18 35.01, 59.35 1.24 M10.54 63.49 C30.43 40.19, 51.62 15.79, 64.99 0.85 M10.54 63.49 C26.94 44.58, 42.96 24.47, 64.99 0.85 M14.21 65.36 C30.66 48.22, 48.57 27.44, 69.98 1.21 M14.21 65.36 C27.9 50.18, 39.13 37, 69.98 1.21 M19.86 64.96 C37.61 45.36, 57.8 22.3, 75.62 0.81 M19.86 64.96 C40.53 42.99, 59.88 19.2, 75.62 0.81 M24.84 65.32 C46.11 41.26, 68.8 14.28, 80.61 1.17 M24.84 65.32 C46.52 39.98, 69.24 13.39, 80.61 1.17 M30.49 64.93 C48.04 44.59, 65.89 26.38, 86.25 0.78 M30.49 64.93 C47.51 43.89, 66.72 22.15, 86.25 0.78 M35.47 65.29 C53.31 47.41, 70.16 25.42, 91.24 1.14 M35.47 65.29 C56.16 42.61, 76.34 18.43, 91.24 1.14 M41.12 64.89 C62.85 40.93, 84.2 16.46, 96.23 1.5 M41.12 64.89 C58.57 44.06, 76.57 23.97, 96.23 1.5 M46.1 65.25 C65.71 41.39, 84.69 19.77, 101.87 1.1 M46.1 65.25 C65.32 44.46, 82.63 22.24, 101.87 1.1 M51.09 65.61 C69.15 43.57, 88.85 20.52, 106.86 1.46 M51.09 65.61 C65.15 49.42, 79.8 33.33, 106.86 1.46 M56.73 65.22 C72.28 46.3, 87.35 30.6, 112.5 1.07 M56.73 65.22 C75.28 42.41, 96.01 19.72, 112.5 1.07 M61.72 65.58 C71.71 54.09, 84.45 37.7, 117.49 1.43 M61.72 65.58 C80.35 42.26, 101.2 20.12, 117.49 1.43 M67.36 65.18 C80.29 49.14, 92.08 34.54, 123.13 1.03 M67.36 65.18 C82.74 47.41, 97.15 30.41, 123.13 1.03 M72.35 65.54 C88.64 47.12, 100.73 30.45, 128.12 1.39 M72.35 65.54 C87.31 46.66, 104.27 30.11, 128.12 1.39 M77.99 65.15 C99.28 40.59, 115.91 19.39, 133.76 1 M77.99 65.15 C98.22 42.16, 118.9 19.36, 133.76 1 M82.98 65.51 C100.31 47.92, 117.16 24.61, 138.75 1.36 M82.98 65.51 C103.74 41.94, 125.2 18.27, 138.75 1.36 M88.62 65.11 C100 50.74, 114.04 35.93, 144.39 0.96 M88.62 65.11 C104.63 47.52, 119.54 28.08, 144.39 0.96 M93.61 65.47 C109.54 46.81, 126.38 26.44, 149.38 1.32 M93.61 65.47 C106.65 49.83, 118.13 35.87, 149.38 1.32 M99.25 65.08 C113.38 46.66, 127.28 32.15, 155.02 0.93 M99.25 65.08 C118.26 41.97, 138.29 18.58, 155.02 0.93 M104.24 65.44 C122.31 43.84, 145.44 17.91, 160.01 1.29 M104.24 65.44 C120.91 45.89, 138.54 24.91, 160.01 1.29 M109.88 65.05 C123.58 53.1, 134.58 37.23, 165.65 0.9 M109.88 65.05 C124.1 48.14, 140.08 31.35, 165.65 0.9 M114.87 65.41 C136.75 42.87, 155.94 17.86, 170.64 1.26 M114.87 65.41 C135.39 43, 154.59 20.58, 170.64 1.26 M120.51 65.01 C136.63 46.54, 155.91 26, 176.28 0.86 M120.51 65.01 C140.53 42.27, 158.76 19.34, 176.28 0.86 M125.5 65.37 C147.59 42.83, 165.3 18.13, 181.27 1.22 M125.5 65.37 C144.8 43.65, 164.3 21.08, 181.27 1.22 M131.14 64.98 C149.4 41.22, 169.95 22, 186.25 1.58 M131.14 64.98 C150.09 43.22, 169.18 22.72, 186.25 1.58 M136.13 65.34 C145.54 53.14, 157.37 38.14, 191.9 1.19 M136.13 65.34 C153.75 44.14, 170.84 22.97, 191.9 1.19 M141.77 64.94 C160.92 42.52, 178.19 21.85, 196.88 1.55 M141.77 64.94 C162.51 40.48, 184.35 17.27, 196.88 1.55 M146.76 65.3 C167.53 39.79, 192.87 13.3, 202.53 1.15 M146.76 65.3 C161.5 50.69, 173.78 33.8, 202.53 1.15 M151.75 65.66 C172.87 42.7, 194.7 18.63, 207.51 1.51 M151.75 65.66 C165.35 51.96, 179.02 37.02, 207.51 1.51 M157.39 65.27 C174.72 45.84, 193.42 25.35, 213.16 1.12 M157.39 65.27 C170.68 48.28, 186.46 31.59, 213.16 1.12 M162.38 65.63 C177.18 49.86, 189.06 34.15, 218.14 1.48 M162.38 65.63 C179.06 46.75, 195.71 26.8, 218.14 1.48 M168.02 65.23 C180.19 50.57, 190.38 38.82, 223.79 1.08 M168.02 65.23 C179.99 50.23, 192.88 36.58, 223.79 1.08 M173.01 65.59 C187.91 51.74, 198.29 36.47, 228.77 1.44 M173.01 65.59 C192.01 44.59, 210.71 23.49, 228.77 1.44 M178.65 65.2 C200.17 42.42, 217.87 19.73, 234.42 1.05 M178.65 65.2 C193.32 48.11, 208.65 33.02, 234.42 1.05 M183.64 65.56 C205.53 41.86, 227.33 16.04, 239.4 1.41 M183.64 65.56 C204.21 40.89, 224.9 16.48, 239.4 1.41 M189.28 65.16 C207.02 44.28, 230.7 17.68, 245.05 1.01 M189.28 65.16 C208.67 41.91, 227.19 20.6, 245.05 1.01 M194.27 65.52 C206.12 50.25, 221.65 35.42, 250.03 1.37 M194.27 65.52 C205.81 51.55, 218.64 36.3, 250.03 1.37 M199.91 65.13 C213.13 52.74, 221.64 38.69, 255.68 0.98 M199.91 65.13 C216.23 45.14, 232.24 25.92, 255.68 0.98 M204.9 65.49 C216.01 49.33, 229.53 38.91, 260.66 1.34 M204.9 65.49 C224.34 43.45, 243.22 23.35, 260.66 1.34 M210.54 65.1 C221.51 52.91, 234.41 38.3, 266.31 0.94 M210.54 65.1 C224.4 48.69, 237.8 32.37, 266.31 0.94 M215.53 65.46 C231.99 49.85, 246.68 32.69, 271.29 1.31 M215.53 65.46 C234.86 43.96, 253.34 21.64, 271.29 1.31 M221.17 65.06 C238.55 47.63, 253.42 27.75, 276.94 0.91 M221.17 65.06 C239.83 43.01, 259.35 21.45, 276.94 0.91 M226.16 65.42 C242.44 47.97, 257.2 27.89, 281.92 1.27 M226.16 65.42 C242.53 45.61, 260.17 26.09, 281.92 1.27 M231.8 65.03 C245.54 47.18, 259.83 32.64, 286.91 1.63 M231.8 65.03 C243.92 51.68, 256.41 36.66, 286.91 1.63 M236.79 65.39 C260.27 42.17, 279.3 14.22, 292.55 1.24 M236.79 65.39 C254.66 45.88, 269.52 26.35, 292.55 1.24 M241.78 65.75 C262.35 41.3, 284.02 15.87, 297.54 1.6 M241.78 65.75 C263.38 42.37, 284.29 18.18, 297.54 1.6 M247.42 65.35 C264.51 45.4, 283.38 25.49, 301.87 2.71 M247.42 65.35 C259.04 50.24, 272.31 36.65, 301.87 2.71 M252.41 65.71 C264.06 49.82, 278.47 37.51, 305.55 4.58 M252.41 65.71 C271.78 42.35, 292.36 18.31, 305.55 4.58 M258.05 65.32 C271.45 49.6, 282.06 37.66, 307.91 7.96 M258.05 65.32 C275.98 42.92, 295.72 21.35, 307.91 7.96 M263.04 65.68 C277.84 47.75, 291.53 32.54, 310.27 11.34 M263.04 65.68 C274.2 51.15, 285.63 39.6, 310.27 11.34 M268.68 65.28 C281.67 52.02, 292.43 40.23, 310.67 16.98 M268.68 65.28 C280.74 50.28, 294.41 36.07, 310.67 16.98 M273.67 65.64 C285.87 50, 300.46 37.29, 310.41 23.38 M273.67 65.64 C283.71 53.58, 294.09 42.74, 310.41 23.38 M279.31 65.25 C284.82 56.31, 291.76 48.39, 310.8 29.02 M279.31 65.25 C289.25 53.49, 298.03 42.99, 310.8 29.02 M284.3 65.61 C293.16 52.65, 304.01 43.1, 310.54 35.42 M284.3 65.61 C294.8 54.51, 304.73 42.01, 310.54 35.42 M289.94 65.21 C296.12 60.87, 301.95 54.62, 310.93 41.06 M289.94 65.21 C297.56 57.73, 302.92 50.41, 310.93 41.06 M294.93 65.57 C297.84 58.78, 304.02 55.61, 311.33 46.71 M294.93 65.57 C298.25 60.01, 302.3 55.95, 311.33 46.71" stroke="#fab005" stroke-width="0.5" fill="none"></path><path d="M15.89 0 M15.89 0 C105.82 -0.09, 196.33 -1.61, 293 0 M15.89 0 C110.64 -0.51, 206.09 -0.28, 293 0 M293 0 C304.97 1.1, 309.1 4.85, 308.89 15.89 M293 0 C304.19 -0.04, 308.99 5.11, 308.89 15.89 M308.89 15.89 C307.81 28.08, 309.11 39.95, 308.89 47.67 M308.89 15.89 C308.36 21.9, 308.27 29.48, 308.89 47.67 M308.89 47.67 C306.93 57.21, 304.35 65.27, 293 63.56 M308.89 47.67 C310.78 58.4, 301.6 65.36, 293 63.56 M293 63.56 C202.81 66.75, 114.17 65.16, 15.89 63.56 M293 63.56 C224.71 63.03, 157.72 63.57, 15.89 63.56 M15.89 63.56 C3.9 65.04, -1.54 57.88, 0 47.67 M15.89 63.56 C5.33 62.96, 1.97 56.25, 0 47.67 M0 47.67 C0.51 39.78, 1.51 29.89, 0 15.89 M0 47.67 C0.13 35.21, 0.41 23.81, 0 15.89 M0 15.89 C0.59 6.18, 3.86 0.19, 15.89 0 M0 15.89 C-1.94 6.4, 3.17 0.17, 15.89 0" stroke="#e67700" stroke-width="1" fill="none"></path></g><g transform="translate(231.5703125 109.8984375) rotate(0 117.1875 12)"><text x="0" y="0" font-family="Cascadia, Segoe UI Emoji" font-size="20px" fill="#343a40" text-anchor="start" style="white-space: pre;" direction="ltr" dominant-baseline="text-before-edge">div[contenteditable]</text></g><g stroke-linecap="round"><g transform="translate(342.1674619406886 168.95263671875) rotate(0 0.09840616729673002 36.098057276448344)"><path d="M0.66 -0.47 C0.71 11.95, 0.44 61.76, 0.29 73.96 M-0.45 -1.77 C-0.52 10.4, -0.31 59.77, -0.41 72.4" stroke="#343a40" stroke-width="1" fill="none"></path></g><g transform="translate(342.1674619406886 168.95263671875) rotate(0 0.09840616729673002 36.098057276448344)"><path d="M-11.43 44.97 C-5.95 52.48, -4.91 62.64, -0.52 71.26 M-10.42 43.6 C-7.57 53.63, -5.24 60.66, 0.16 71.59" stroke="#343a40" stroke-width="1" fill="none"></path></g><g transform="translate(342.1674619406886 168.95263671875) rotate(0 0.09840616729673002 36.098057276448344)"><path d="M9.09 44.99 C8.43 52.61, 3.31 62.76, -0.52 71.26 M10.1 43.62 C6.68 53.74, 2.72 60.76, 0.16 71.59" stroke="#343a40" stroke-width="1" fill="none"></path></g></g><mask></mask><g transform="translate(364.74609375 188.72607421875) rotate(0 41.015625 12)"><text x="0" y="0" font-family="Cascadia, Segoe UI Emoji" font-size="20px" fill="#343a40" text-anchor="start" style="white-space: pre;" direction="ltr" dominant-baseline="text-before-edge">onInput</text></g><g stroke-linecap="round" transform="translate(192.40625 272.28466796875) rotate(0 157.236328125 31.341796875)"><path d="M15.67 0 M15.67 0 C116.83 -1.96, 219.99 -1.33, 298.8 0 M15.67 0 C122.02 -0.45, 227.37 -0.01, 298.8 0 M298.8 0 C307.52 -0.43, 313.35 6.09, 314.47 15.67 M298.8 0 C307.99 -0.68, 316.36 7.41, 314.47 15.67 M314.47 15.67 C314.9 27.79, 316.18 37.55, 314.47 47.01 M314.47 15.67 C314.84 21.7, 315.16 29.33, 314.47 47.01 M314.47 47.01 C313.26 59.23, 309.15 61.43, 298.8 62.68 M314.47 47.01 C315.69 57.91, 311.18 60.54, 298.8 62.68 M298.8 62.68 C218.19 64.74, 141.08 64.14, 15.67 62.68 M298.8 62.68 C231.27 60.38, 163.83 60.86, 15.67 62.68 M15.67 62.68 C3.84 60.77, -0.7 56.97, 0 47.01 M15.67 62.68 C7.26 62.88, 1.73 56.63, 0 47.01 M0 47.01 C-1.6 42.09, -1.59 31.94, 0 15.67 M0 47.01 C0.07 35.53, 0.89 21.37, 0 15.67 M0 15.67 C-1.03 4.87, 6.44 -0.6, 15.67 0 M0 15.67 C1.65 5.02, 6.5 1.08, 15.67 0" stroke="#343a40" stroke-width="1" fill="none"></path></g><g transform="translate(290.80078125 291.691162109375) rotate(0 58.59375 12)"><text x="0" y="0" font-family="Cascadia, Segoe UI Emoji" font-size="20px" fill="#343a40" text-anchor="start" style="white-space: pre;" direction="ltr" dominant-baseline="text-before-edge">filterText</text></g><g transform="translate(280.8125 244.8489746093751) rotate(0 64 9.599999999999909)"><text x="0" y="0" font-family="Cascadia, Segoe UI Emoji" font-size="16px" fill="#343a40" text-anchor="start" style="white-space: pre;" direction="ltr" dominant-baseline="text-before-edge">过滤非拼音的字符</text></g><g stroke-linecap="round"><g transform="translate(342.9230360261645 345.7161646857776) rotate(0 1.4628986743400105 33.36048641540515)"><path d="M-0.95 -0.53 C-0.49 10.67, 3.37 56.14, 3.88 67.25 M0.75 1.81 C1.06 12.63, 3.5 54.42, 3.54 65.28" stroke="#343a40" stroke-width="1" fill="none"></path></g><g transform="translate(342.9230360261645 345.7161646857776) rotate(0 1.4628986743400105 33.36048641540515)"><path d="M-8.56 39.39 C-2.78 47.4, -0.27 60.06, 1.69 66.02 M-7.51 37.63 C-3.53 48.04, 0.79 58.92, 3.17 65.06" stroke="#343a40" stroke-width="1" fill="none"></path></g><g transform="translate(342.9230360261645 345.7161646857776) rotate(0 1.4628986743400105 33.36048641540515)"><path d="M11.95 38.69 C9.7 46.81, 4.17 59.74, 1.69 66.02 M13 36.93 C9.29 47.41, 5.91 58.56, 3.17 65.06" stroke="#343a40" stroke-width="1" fill="none"></path></g></g><mask></mask><g stroke-linecap="round" transform="translate(200.4609375 453.800537109375) rotate(0 155.419921875 28.609375)"><path d="M14.3 0 M14.3 0 C111.19 0.9, 210.67 -1.48, 296.54 0 M14.3 0 C127 -2.34, 237.8 -1.67, 296.54 0 M296.54 0 C306.41 -1.07, 310.27 4.63, 310.84 14.3 M296.54 0 C304.29 -2.13, 309.08 3.98, 310.84 14.3 M310.84 14.3 C311.06 24.63, 312.18 31.92, 310.84 42.91 M310.84 14.3 C310.19 24.61, 310.58 34.74, 310.84 42.91 M310.84 42.91 C312.21 53.55, 306.28 56.77, 296.54 57.22 M310.84 42.91 C311.43 52.41, 306.17 57.04, 296.54 57.22 M296.54 57.22 C185.72 56.13, 76.81 55.75, 14.3 57.22 M296.54 57.22 C237.35 57.02, 178.56 57.76, 14.3 57.22 M14.3 57.22 C2.81 56.17, 0.75 54.16, 0 42.91 M14.3 57.22 C6.65 57.36, -2 54.24, 0 42.91 M0 42.91 C-1.19 35.23, -0.21 23.94, 0 14.3 M0 42.91 C-0.6 35.2, 0.22 28.92, 0 14.3 M0 14.3 C-1.4 6.25, 3.23 -0.38, 14.3 0 M0 14.3 C0.03 4.17, 6.74 -2.02, 14.3 0" stroke="#343a40" stroke-width="1" fill="none"></path></g><g transform="translate(291.8671875 468.7833496093749) rotate(0 70.3125 12)"><text x="0" y="0" font-family="Cascadia, Segoe UI Emoji" font-size="20px" fill="#343a40" text-anchor="start" style="white-space: pre;" direction="ltr" dominant-baseline="text-before-edge">markupPinyin</text></g><g transform="translate(295.4609375 422.042724609375) rotate(0 64 9.600000000000023)"><text x="0" y="0" font-family="Cascadia, Segoe UI Emoji" font-size="16px" fill="#343a40" text-anchor="start" style="white-space: pre;" direction="ltr" dominant-baseline="text-before-edge">声调拼音字符标注</text></g><g stroke-linecap="round"><g transform="translate(356.1792841557742 516.8752441406245) rotate(0 0.6901668836118802 25.247206988930884)"><path d="M0.62 -0.11 C1.06 8.4, 1.74 43.43, 1.89 51.7 M-0.51 -1.21 C-0.16 6.91, 0.83 41.51, 1.02 50.09" stroke="#343a40" stroke-width="1" fill="none"></path></g><g transform="translate(356.1792841557742 516.8752441406245) rotate(0 0.6901668836118802 25.247206988930884)"><path d="M-8.46 26.72 C-4.3 31.73, -5.66 36.91, 0.35 50.9 M-8.15 27.05 C-4.41 33.16, -1.41 41.03, 1.56 51.06" stroke="#343a40" stroke-width="1" fill="none"></path></g><g transform="translate(356.1792841557742 516.8752441406245) rotate(0 0.6901668836118802 25.247206988930884)"><path d="M8.9 26.27 C8.89 31.48, 3.36 36.76, 0.35 50.9 M9.21 26.6 C7.49 32.8, 5.05 40.81, 1.56 51.06" stroke="#343a40" stroke-width="1" fill="none"></path></g></g><mask></mask><g stroke-linecap="round" transform="translate(208.06640625 595.562744140625) rotate(0 152.7265625 30.390625)"><path d="M15.2 0 M15.2 0 C91.14 -1.58, 166.75 -0.24, 290.26 0 M15.2 0 C76.9 0.35, 138.8 1.02, 290.26 0 M290.26 0 C299.15 -1.05, 303.69 6.75, 305.45 15.2 M290.26 0 C299 0.53, 306.92 3.37, 305.45 15.2 M305.45 15.2 C305.46 24.03, 306.13 29.66, 305.45 45.59 M305.45 15.2 C305 25.44, 305.96 35.73, 305.45 45.59 M305.45 45.59 C303.89 55.71, 300.13 59.54, 290.26 60.78 M305.45 45.59 C305.75 54.37, 300.66 61.83, 290.26 60.78 M290.26 60.78 C206.62 63.52, 122.45 61.78, 15.2 60.78 M290.26 60.78 C219.78 60.08, 149.48 60.35, 15.2 60.78 M15.2 60.78 C4.97 61.2, 1.59 57.29, 0 45.59 M15.2 60.78 C6.8 61.6, -0.9 54.64, 0 45.59 M0 45.59 C-1.49 35.5, -1.04 26.23, 0 15.2 M0 45.59 C0.49 38.97, 0.61 32.12, 0 15.2 M0 15.2 C1.19 3.93, 3.08 0.68, 15.2 0 M0 15.2 C-1.97 5.33, 3.7 0.42, 15.2 0" stroke="#343a40" stroke-width="1" fill="none"></path></g><g transform="translate(296.7421875 612.644775390625) rotate(0 58.59375 12)"><text x="0" y="0" font-family="Cascadia, Segoe UI Emoji" font-size="20px" fill="#343a40" text-anchor="start" style="white-space: pre;" direction="ltr" dominant-baseline="text-before-edge">updateText</text></g><g transform="translate(259.03515625 573.2674316406251) rotate(0 122.1875 19.200000000000045)"><text x="0" y="0" font-family="Cascadia, Segoe UI Emoji" font-size="16px" fill="#343a40" text-anchor="start" style="white-space: pre;" direction="ltr" dominant-baseline="text-before-edge">用标注拼音之后的 dom 更新 div</text><text x="0" y="19.2" font-family="Cascadia, Segoe UI Emoji" font-size="16px" fill="#343a40" text-anchor="start" style="white-space: pre;" direction="ltr" dominant-baseline="text-before-edge"></text></g><g stroke-linecap="round"><g transform="translate(191.875 630.7147137046495) rotate(0 -37.66659536397083 -243.33509041059415)"><path d="M-0.81 -3.8 C-11.58 -7.81, -51.93 57.02, -64.47 -26.45 C-77.01 -109.91, -73.77 -424.77, -76.05 -504.58 M0.96 -1.73 C-9.92 -5.66, -52.16 58.19, -65.04 -25.43 C-77.91 -109.05, -74.04 -423.58, -76.29 -503.47" stroke="#343a40" stroke-width="1" fill="none"></path></g><g transform="translate(191.875 630.7147137046495) rotate(0 -37.66659536397083 -243.33509041059415)"><path d="M-67.53 -474.14 C-70.82 -482.52, -73.12 -494.84, -78.17 -504.79 M-66.65 -476.01 C-69.07 -486.7, -74.27 -496.13, -76.89 -503.12" stroke="#343a40" stroke-width="1" fill="none"></path></g><g transform="translate(191.875 630.7147137046495) rotate(0 -37.66659536397083 -243.33509041059415)"><path d="M-88.05 -473.97 C-84.95 -482.27, -80.85 -494.64, -78.17 -504.79 M-87.17 -475.84 C-81.76 -486.61, -79.13 -496.11, -76.89 -503.12" stroke="#343a40" stroke-width="1" fill="none"></path></g></g><mask></mask><g stroke-linecap="round"><g transform="translate(120.95703125 109.285400390625) rotate(0 28.145909055117528 0.6172168458904252)"><path d="M0.31 -1.19 C9.47 -0.96, 45.61 0.9, 54.88 1.34 M-0.98 0.8 C8.59 1.16, 47.89 2.16, 57.28 2.42" stroke="#343a40" stroke-width="1" fill="none"></path></g><g transform="translate(120.95703125 109.285400390625) rotate(0 28.145909055117528 0.6172168458904252)"><path d="M28.96 10.23 C37.21 9.26, 45.11 7.9, 58.08 4.01 M31.19 10.23 C39.76 8.46, 50.93 4.12, 58.1 1.99" stroke="#343a40" stroke-width="1" fill="none"></path></g><g transform="translate(120.95703125 109.285400390625) rotate(0 28.145909055117528 0.6172168458904252)"><path d="M29.47 -8.75 C37.56 -4.18, 45.31 0.01, 58.08 4.01 M31.69 -8.75 C39.98 -3.67, 50.96 -1.15, 58.1 1.99" stroke="#343a40" stroke-width="1" fill="none"></path></g></g><mask></mask><g transform="translate(34.97265625 233.242431640625) rotate(0 32 9.599999999999909)"><text x="0" y="0" font-family="Cascadia, Segoe UI Emoji" font-size="16px" fill="#343a40" text-anchor="start" style="white-space: pre;" direction="ltr" dominant-baseline="text-before-edge">更新内容</text></g><g stroke-linecap="round"><g transform="translate(517.66015625 481.209716796875) rotate(0 73.94667218886644 -219.37875208176797)"><path d="M1.2 0.86 C7.73 -34, 15.12 -135.92, 39.51 -209.33 C63.9 -282.74, 129.5 -401.08, 147.52 -439.62 M0.37 0.27 C6.79 -34.94, 14.73 -138.07, 39.08 -211.17 C63.42 -284.27, 128.36 -400.19, 146.46 -438.33" stroke="#343a40" stroke-width="1" fill="none"></path></g><g transform="translate(517.66015625 481.209716796875) rotate(0 73.94667218886644 -219.37875208176797)"><path d="M144.22 -406.92 C144.93 -419.35, 145.16 -428.92, 144.77 -440.06 M143.36 -409.51 C144.22 -417.51, 145.85 -424.35, 145.83 -437.42" stroke="#343a40" stroke-width="1" fill="none"></path></g><g transform="translate(517.66015625 481.209716796875) rotate(0 73.94667218886644 -219.37875208176797)"><path d="M125.94 -416.25 C132.67 -425.78, 138.92 -432.28, 144.77 -440.06 M125.08 -418.84 C130.94 -424.1, 137.65 -428.34, 145.83 -437.42" stroke="#343a40" stroke-width="1" fill="none"></path></g></g><mask></mask><g stroke-linecap="round"><g transform="translate(798.8539959505706 273.5068359375) rotate(0 -0.3526534917226627 40.28821510575722)"><path d="M0.84 0.1 C0.79 13.48, -0.51 66.97, -1.06 80.23 M-0.17 -0.9 C-0.24 12.64, -0.99 67.94, -1.55 81.48" stroke="#343a40" stroke-width="1" fill="none"></path></g><g transform="translate(798.8539959505706 273.5068359375) rotate(0 -0.3526534917226627 40.28821510575722)"><path d="M-10.94 54.49 C-9.76 58.86, -8.5 66.49, -1.88 79.9 M-10.79 52.84 C-8.61 59.79, -7.15 68.21, -2.17 81.7" stroke="#343a40" stroke-width="1" fill="none"></path></g><g transform="translate(798.8539959505706 273.5068359375) rotate(0 -0.3526534917226627 40.28821510575722)"><path d="M9.57 55 C5.86 59.39, 2.24 66.9, -1.88 79.9 M9.73 53.35 C6.63 59.96, 2.81 68.25, -2.17 81.7" stroke="#343a40" stroke-width="1" fill="none"></path></g></g><mask></mask><g transform="translate(817.25390625 298.8818359375) rotate(0 32.8125 9.600000000000023)"><text x="0" y="0" font-family="Cascadia, Segoe UI Emoji" font-size="16px" fill="#343a40" text-anchor="start" style="white-space: pre;" direction="ltr" dominant-baseline="text-before-edge">onClick</text></g><g stroke-linecap="round" transform="translate(683.85546875 364.2216796875) rotate(0 113 37.5)"><path d="M4.99 4.34 C4.99 4.34, 4.99 4.34, 4.99 4.34 M4.99 4.34 C4.99 4.34, 4.99 4.34, 4.99 4.34 M0.79 15.26 C3.24 11.1, 8.57 8.44, 11.95 2.43 M0.79 15.26 C3.17 12.19, 6.37 8.44, 11.95 2.43 M1.19 20.91 C7.84 14.45, 14.53 8.99, 18.9 0.53 M1.19 20.91 C5.66 15.9, 10.13 11.44, 18.9 0.53 M0.93 27.31 C8.86 17.77, 15.32 9.83, 24.54 0.14 M0.93 27.31 C9.16 16.56, 19 7.72, 24.54 0.14 M1.32 32.95 C10.76 22.75, 19.58 15.34, 29.53 0.5 M1.32 32.95 C11.84 23.09, 20.46 10.85, 29.53 0.5 M1.06 39.35 C11.14 26.5, 23.98 16.32, 35.17 0.1 M1.06 39.35 C10.02 27.36, 20.38 16.49, 35.17 0.1 M0.8 45.74 C11.5 35.73, 19.72 22.56, 40.16 0.46 M0.8 45.74 C14.41 29.26, 27.1 14.36, 40.16 0.46 M1.19 51.39 C17.28 32.71, 31.87 18.91, 45.8 0.07 M1.19 51.39 C14.85 36.04, 27.19 20.78, 45.8 0.07 M0.93 57.78 C13.77 40.61, 30.59 23.28, 50.79 0.43 M0.93 57.78 C14.26 40.99, 29.07 25.79, 50.79 0.43 M1.98 62.67 C21.48 40.07, 40.97 15.33, 56.43 0.03 M1.98 62.67 C15.23 48.63, 27.16 34.46, 56.43 0.03 M4.34 66.05 C15.47 51.14, 29.27 39.13, 61.42 0.39 M4.34 66.05 C19.94 47.06, 36.57 28.82, 61.42 0.39 M5.4 70.94 C22.83 51.26, 41.49 28.16, 67.06 0 M5.4 70.94 C21.96 51.66, 37.67 33.38, 67.06 0 M9.07 72.81 C29.74 50.92, 48.63 29.2, 72.05 0.36 M9.07 72.81 C32.47 43.83, 56.79 17.98, 72.05 0.36 M12.09 75.43 C37.82 44.78, 61 16.08, 77.69 -0.04 M12.09 75.43 C37.68 46.82, 62.56 17.11, 77.69 -0.04 M17.08 75.79 C34.01 55.64, 46.83 41.43, 82.68 0.32 M17.08 75.79 C37.22 51.59, 58.51 27.9, 82.68 0.32 M21.41 76.91 C39.58 60.54, 52.4 40.81, 88.32 -0.07 M21.41 76.91 C40.27 55.73, 58.82 34.32, 88.32 -0.07 M26.39 77.27 C47.37 53.58, 68.13 29.62, 93.31 0.29 M26.39 77.27 C51.72 48.12, 75.75 20.19, 93.31 0.29 M32.04 76.87 C48.57 55.05, 67.54 37.22, 98.3 0.65 M32.04 76.87 C47.68 58.71, 64.65 39.15, 98.3 0.65 M37.02 77.23 C51.04 61.43, 64.03 45.18, 103.94 0.25 M37.02 77.23 C57.75 54.87, 76.18 31.97, 103.94 0.25 M42.67 76.84 C68.35 47.29, 92.56 20.17, 108.93 0.61 M42.67 76.84 C65.1 50.62, 85.94 26.54, 108.93 0.61 M47.65 77.2 C67.19 59.55, 82.32 37.22, 114.57 0.22 M47.65 77.2 C61.46 60.48, 74.82 44.88, 114.57 0.22 M53.3 76.81 C71.38 54.6, 88.11 35.33, 119.56 0.58 M53.3 76.81 C76.73 48.78, 98.77 22.71, 119.56 0.58 M58.28 77.17 C83.25 50.13, 105.33 23.85, 125.2 0.19 M58.28 77.17 C77.66 53.84, 97.76 31.85, 125.2 0.19 M63.93 76.77 C77.47 59.67, 95.19 43.58, 130.19 0.55 M63.93 76.77 C80.81 56.7, 99.49 36.66, 130.19 0.55 M68.91 77.13 C85.75 59.2, 100.17 42.72, 135.83 0.15 M68.91 77.13 C89.56 53.26, 108.79 30.29, 135.83 0.15 M73.9 77.49 C90.46 57.98, 109.48 33.79, 140.82 0.51 M73.9 77.49 C90.24 58.16, 105.99 38.67, 140.82 0.51 M79.54 77.1 C94.54 61.43, 111.83 41.94, 146.46 0.12 M79.54 77.1 C95.99 58.98, 111.51 40.7, 146.46 0.12 M84.53 77.46 C108.61 49.21, 133.71 19.39, 151.45 0.48 M84.53 77.46 C107.64 50.78, 132.24 23.35, 151.45 0.48 M90.17 77.06 C112.11 52.06, 136.24 25.28, 157.09 0.08 M90.17 77.06 C107.86 55.78, 127.05 35.01, 157.09 0.08 M95.16 77.42 C113.94 52.54, 137.16 32.35, 162.08 0.44 M95.16 77.42 C115.28 54.93, 135.03 30.77, 162.08 0.44 M100.8 77.03 C116.13 57.89, 135.5 39.5, 167.72 0.05 M100.8 77.03 C117.06 57.88, 133.59 39.93, 167.72 0.05 M105.79 77.39 C129.14 53.03, 150.76 28.39, 172.71 0.41 M105.79 77.39 C124.62 55.96, 143.05 36.06, 172.71 0.41 M111.43 76.99 C126.58 60.71, 139.88 43.85, 178.35 0.01 M111.43 76.99 C135.45 48.66, 160.1 20.81, 178.35 0.01 M116.42 77.35 C141.68 48.85, 163.24 23.27, 183.34 0.37 M116.42 77.35 C137.19 52.86, 159.14 29.84, 183.34 0.37 M122.06 76.96 C144.93 51.78, 169.55 23.05, 188.98 -0.02 M122.06 76.96 C139.41 55.66, 158.71 33.93, 188.98 -0.02 M127.05 77.32 C149.96 50.1, 176.67 21.15, 193.97 0.34 M127.05 77.32 C149.53 50.34, 173.87 24.53, 193.97 0.34 M132.69 76.92 C151.14 53.03, 174.05 31.01, 199.61 -0.06 M132.69 76.92 C148.32 60.19, 162.81 41.41, 199.61 -0.06 M137.68 77.28 C163.05 47.86, 191.51 15.33, 204.6 0.3 M137.68 77.28 C159.18 52.69, 180.28 28.6, 204.6 0.3 M143.32 76.89 C159.44 59.38, 173.42 40.79, 208.93 1.42 M143.32 76.89 C163.87 52.73, 183.1 28.98, 208.93 1.42 M148.31 77.25 C170.47 49.08, 197.25 23.36, 213.92 1.78 M148.31 77.25 C167.23 54.27, 186.69 33.7, 213.92 1.78 M153.95 76.86 C165.81 59.59, 179.75 46.35, 217.59 3.65 M153.95 76.86 C178.02 49.34, 201.62 21.13, 217.59 3.65 M158.94 77.22 C185.14 49.92, 208.22 20.4, 221.92 4.76 M158.94 77.22 C181.31 52.87, 203.54 27.21, 221.92 4.76 M164.59 76.82 C178.93 62.21, 189.31 46.43, 223.63 8.9 M164.59 76.82 C186.11 51.74, 206.34 28.96, 223.63 8.9 M169.57 77.18 C190.59 55.04, 208.53 33.93, 225.34 13.03 M169.57 77.18 C185.8 58.18, 201.44 39.83, 225.34 13.03 M175.22 76.79 C194.02 55.88, 211.3 37.02, 227.7 16.41 M175.22 76.79 C191.5 57.82, 209.35 37.79, 227.7 16.41 M180.2 77.15 C194 61.05, 205.9 48.85, 228.09 22.05 M180.2 77.15 C193.61 60.6, 210 42.31, 228.09 22.05 M185.19 77.51 C200.44 60.12, 218.24 41.83, 227.83 28.45 M185.19 77.51 C195.24 64.95, 206.61 53.58, 227.83 28.45 M190.83 77.11 C203.13 62.61, 216.24 48.41, 228.23 34.09 M190.83 77.11 C203.9 63.23, 216.04 48.08, 228.23 34.09 M195.82 77.47 C202.78 70.61, 210.75 62.42, 227.97 40.49 M195.82 77.47 C203.96 69.73, 210.79 61.03, 227.97 40.49 M201.46 77.08 C210.48 65.94, 219.04 55.06, 228.36 46.13 M201.46 77.08 C209.25 68.95, 216.99 60.43, 228.36 46.13 M207.76 75.93 C212.47 68.2, 219.61 59.72, 228.1 52.53 M207.76 75.93 C212.9 70.82, 216.85 64.56, 228.1 52.53 M214.72 74.02 C218.89 68.8, 223.62 61.33, 228.49 58.18 M214.72 74.02 C218.12 70.04, 220.06 67.7, 228.49 58.18" stroke="#fab005" stroke-width="0.5" fill="none"></path><path d="M18.75 0 M18.75 0 C56.41 1.48, 95.11 2.01, 207.25 0 M18.75 0 C60.26 -1.22, 101.55 -0.93, 207.25 0 M207.25 0 C219.02 -0.1, 224.75 4.47, 226 18.75 M207.25 0 C220.56 -1.72, 225.79 8.07, 226 18.75 M226 18.75 C227.1 27.7, 226.82 39.24, 226 56.25 M226 18.75 C224.92 28.57, 226.7 38.1, 226 56.25 M226 56.25 C226.16 67.77, 220.79 75.8, 207.25 75 M226 56.25 C225.29 67.22, 219.94 75.99, 207.25 75 M207.25 75 C151.43 72.74, 93.78 73.51, 18.75 75 M207.25 75 C142.33 75.15, 75.95 73.82, 18.75 75 M18.75 75 C6.75 76.81, -1.18 70.35, 0 56.25 M18.75 75 C6.18 75.56, 0.19 66.5, 0 56.25 M0 56.25 C0.9 43.66, -0.89 29.07, 0 18.75 M0 56.25 C-0.09 48.16, -0.61 38.44, 0 18.75 M0 18.75 C0.78 4.55, 5.01 -1.15, 18.75 0 M0 18.75 C1.04 5.93, 8.46 1.98, 18.75 0" stroke="#343a40" stroke-width="1" fill="none"></path></g><g transform="translate(703.10546875 389.7216796875) rotate(0 93.75 12)"><text x="93.75" y="0" font-family="Cascadia, Segoe UI Emoji" font-size="20px" fill="#e67700" text-anchor="middle" style="white-space: pre;" direction="ltr" dominant-baseline="text-before-edge">div.letter-tones</text></g><g transform="translate(925.1875 347.1466796875002) rotate(0 68.9375 19.200000000000045)"><text x="0" y="0" font-family="Cascadia, Segoe UI Emoji" font-size="16px" fill="#e67700" text-anchor="start" style="white-space: pre;" direction="ltr" dominant-baseline="text-before-edge">1、display</text><text x="0" y="19.2" font-family="Cascadia, Segoe UI Emoji" font-size="16px" fill="#e67700" text-anchor="start" style="white-space: pre;" direction="ltr" dominant-baseline="text-before-edge">2、replaceTones</text></g><g stroke-linecap="round"><g transform="translate(797.81640625 503.7138671875002) rotate(0 1.6619384448975438 34.13435486197466)"><path d="M-0.28 1.08 C0.48 12.44, 3.18 56.89, 3.6 67.67 M1.77 0.6 C2.49 11.68, 2.41 55.07, 2.9 66.07" stroke="#000000" stroke-width="1" fill="none"></path></g><g transform="translate(797.81640625 503.7138671875002) rotate(0 1.6619384448975438 34.13435486197466)"><path d="M-6.1 38.87 C-3.95 42.9, -4.72 51.77, 2.47 64.48 M-7.42 38.94 C-3.03 48.76, 0.31 58.15, 3.63 66.07" stroke="#000000" stroke-width="1" fill="none"></path></g><g transform="translate(797.81640625 503.7138671875002) rotate(0 1.6619384448975438 34.13435486197466)"><path d="M14.42 38.47 C12 42.55, 6.66 51.51, 2.47 64.48 M13.1 38.54 C9.96 48.61, 5.78 58.14, 3.63 66.07" stroke="#000000" stroke-width="1" fill="none"></path></g></g><mask></mask><g transform="translate(821.66015625 521.5029296875) rotate(0 32.8125 9.600000000000023)"><text x="0" y="0" font-family="Cascadia, Segoe UI Emoji" font-size="16px" fill="#000000" text-anchor="start" style="white-space: pre;" direction="ltr" dominant-baseline="text-before-edge">onClick</text></g><g transform="translate(679.5234375 131.240234375) rotate(0 178.125 67.20000000000005)"><text x="0" y="0" font-family="Cascadia, Segoe UI Emoji" font-size="16px" fill="#000000" text-anchor="start" style="white-space: pre;" direction="ltr" dominant-baseline="text-before-edge">&lt;span class="mark-tone" </text><text x="0" y="19.2" font-family="Cascadia, Segoe UI Emoji" font-size="16px" fill="#000000" text-anchor="start" style="white-space: pre;" direction="ltr" dominant-baseline="text-before-edge">    data-letter='{{letter}}' </text><text x="0" y="38.4" font-family="Cascadia, Segoe UI Emoji" font-size="16px" fill="#000000" text-anchor="start" style="white-space: pre;" direction="ltr" dominant-baseline="text-before-edge">    data-tones='{{tones}}'&gt; {{letter}}</text><text x="0" y="57.599999999999994" font-family="Cascadia, Segoe UI Emoji" font-size="16px" fill="#000000" text-anchor="start" style="white-space: pre;" direction="ltr" dominant-baseline="text-before-edge">&lt;/span&gt;</text><text x="0" y="76.8" font-family="Cascadia, Segoe UI Emoji" font-size="16px" fill="#000000" text-anchor="start" style="white-space: pre;" direction="ltr" dominant-baseline="text-before-edge"></text><text x="0" y="96" font-family="Cascadia, Segoe UI Emoji" font-size="16px" fill="#000000" text-anchor="start" style="white-space: pre;" direction="ltr" dominant-baseline="text-before-edge">letter: 当前的声调</text><text x="0" y="115.19999999999999" font-family="Cascadia, Segoe UI Emoji" font-size="16px" fill="#000000" text-anchor="start" style="white-space: pre;" direction="ltr" dominant-baseline="text-before-edge">tones: 当前的所有带声调的字符</text></g><g transform="translate(677.98828125 599.78369140625) rotate(0 171.5625 9.600000000000023)"><text x="0" y="0" font-family="Cascadia, Segoe UI Emoji" font-size="16px" fill="#000000" text-anchor="start" style="white-space: pre;" direction="ltr" dominant-baseline="text-before-edge">使用当前点击的声调替换 mark-tone 中的声调</text></g></svg>